<svg fill="none" height="972" width="712" xmlns="http://www.w3.org/2000/svg" xmlns:xlink="http://www.w3.org/1999/xlink"><clipPath id="a"><rect height="960" rx="20" width="700" x="6" y="6"/></clipPath><g clip-path="url(#a)"><rect fill="#f7f7f5" height="960" rx="20" width="700" x="6" y="6"/><path d="m-318.935-211.13h1073.2v1037.2h-1073.2z" fill="#c494d6" transform="matrix(.97309851 -.23038943 .23038943 .97309851 40.062293 -79.158963)"/><path d="m275.689 887.748-.08-38.5 24.75-.051.014 6.6-17.49.036.019 9.185 15.95-.033.013 6.6-15.95.033.02 9.515 17.82-.037.014 6.6zm30.674-.064-.057-27.28 6.82-.014.006 2.97.99-.002c.475-.917 1.262-1.707 2.36-2.37 1.099-.699 2.547-1.05 4.343-1.054 1.944-.004 3.503.378 4.678 1.146a7.363 7.363 0 0 1 2.701 2.909l.99-.002a8.033 8.033 0 0 1 2.634-2.92c1.135-.773 2.747-1.161 4.837-1.166 1.687-.003 3.209.361 4.567 1.091 1.395.694 2.497 1.773 3.307 3.238.847 1.428 1.272 3.243 1.276 5.443l.038 17.93-6.93.014-.036-17.435c-.004-1.503-.391-2.621-1.162-3.353-.772-.768-1.854-1.151-3.248-1.148-1.576.003-2.804.519-3.682 1.548-.841.991-1.26 2.422-1.256 4.292l.034 16.115-6.93.015-.036-17.435c-.004-1.504-.391-2.621-1.162-3.353-.772-.768-1.854-1.151-3.248-1.148-1.576.003-2.804.519-3.682 1.547-.841.992-1.26 2.423-1.256 4.293l.034 16.115zm46.966 10.903-.08-38.28 6.82-.014.007 3.3.99-.002c.621-1.065 1.591-2.002 2.909-2.811 1.319-.846 3.206-1.272 5.663-1.277 2.2-.004 4.236.541 6.108 1.637 1.872 1.06 3.379 2.633 4.52 4.721s1.715 4.617 1.721 7.587l.002.88c.006 2.97-.557 5.501-1.69 7.593-1.132 2.092-2.632 3.691-4.5 4.794-1.868 1.068-3.901 1.604-6.101 1.608-2.457.005-4.346-.394-5.668-1.198-1.285-.841-2.222-1.737-2.811-2.689l-.99.002.03 14.135zm14.266-16.31c2.163-.004 3.94-.686 5.331-2.046 1.427-1.396 2.138-3.414 2.132-6.054l-.001-.55c-.005-2.64-.725-4.637-2.157-5.991-1.433-1.39-3.213-2.083-5.34-2.079-2.126.005-3.903.705-5.33 2.102-1.427 1.359-2.138 3.359-2.133 5.999l.001.55c.006 2.64.725 4.655 2.158 6.045 1.433 1.354 3.212 2.029 5.339 2.024zm29.256 5.99c-1.944.004-3.686-.323-5.227-.979-1.542-.694-2.772-1.681-3.691-2.963-.883-1.318-1.326-2.912-1.33-4.782-.006-2.823.979-4.952 2.956-6.386s4.506-2.154 7.586-2.161l7.48-.015-.003-1.54c-.003-1.284-.408-2.328-1.217-3.133-.808-.842-2.092-1.261-3.852-1.257-1.724.004-3.006.41-3.848 1.218-.842.772-1.39 1.781-1.644 3.029l-6.384-2.132a11.023 11.023 0 0 1 2.082-3.8c.988-1.175 2.287-2.113 3.899-2.813 1.649-.736 3.646-1.107 5.993-1.112 3.593-.008 6.437.885 8.531 2.677 2.093 1.793 3.144 4.394 3.151 7.804l.021 10.175c.002 1.1.517 1.649 1.543 1.646l2.2-.004.012 5.72-4.62.01c-1.357.002-2.476-.325-3.357-.984-.881-.658-1.323-1.537-1.325-2.637l-.001-.055-1.045.002c-.145.441-.474 1.028-.986 1.762-.512.698-1.317 1.323-2.416 1.875-1.099.553-2.602.831-4.508.835zm1.198-5.613c1.943-.004 3.519-.539 4.727-1.605 1.244-1.102 1.865-2.552 1.861-4.348l-.001-.55-6.985.014c-1.284.003-2.291.28-3.024.831-.732.552-1.097 1.323-1.095 2.313s.389 1.796 1.16 2.417c.771.622 1.89.931 3.357.928zm30.59 4.777c-1.797.004-3.265-.543-4.404-1.641-1.102-1.134-1.655-2.637-1.659-4.507l-.032-15.4-6.82.015-.012-5.72 6.82-.015-.017-8.47 6.93-.014.017 8.47 7.48-.015.012 5.72-7.48.015.029 14.19c.003 1.1.517 1.649 1.544 1.647l5.28-.011.012 5.72zm14.633-.03-.08-38.5 6.93-.015.03 14.575.99-.002c.438-.881 1.243-1.726 2.415-2.535 1.208-.846 3.022-1.271 5.442-1.276 2.127-.005 3.979.487 5.558 1.473 1.615.95 2.865 2.286 3.749 4.008.883 1.684 1.327 3.664 1.332 5.937l.034 16.28-6.93.014-.033-15.73c-.004-2.053-.521-3.592-1.55-4.617-.992-1.024-2.423-1.535-4.293-1.531-2.126.005-3.775.723-4.945 2.156-1.171 1.395-1.753 3.358-1.748 5.888l.029 13.86zm36.454 10.924-.012-6.05 14.85-.031c1.026-.002 1.539-.553 1.536-1.653l-.014-6.875-.99.002c-.438.918-1.261 1.818-2.469 2.7-1.209.883-3.041 1.327-5.498 1.332-2.126.004-3.997-.469-5.613-1.419-1.578-.986-2.809-2.341-3.693-4.062-.884-1.722-1.328-3.701-1.332-5.937l-.034-16.28 6.93-.015.033 15.73c.004 2.054.502 3.593 1.494 4.617 1.029 1.025 2.478 1.535 4.348 1.531 2.127-.004 3.775-.704 4.946-2.1 1.17-1.433 1.753-3.414 1.748-5.944l-.029-13.86 6.93-.014.066 32.12c.004 1.87-.543 3.356-1.64 4.458-1.098 1.139-2.563 1.711-4.397 1.714zm44.644-11.093-.08-38.5 13.475-.027 6.725 33.536.989-.002 6.586-33.564 13.475-.028.08 38.5-7.04.014-.069-33.164-.99.002-6.531 33.178-11.99.025-6.669-33.151-.99.002.069 33.165zm57.192.652c-1.943.004-3.685-.323-5.227-.979-1.541-.694-2.772-1.681-3.691-2.963-.883-1.318-1.326-2.912-1.33-4.782-.006-2.823.98-4.952 2.957-6.386s4.505-2.154 7.585-2.161l7.48-.015-.003-1.54c-.002-1.284-.408-2.328-1.216-3.133-.809-.841-2.093-1.26-3.853-1.257-1.723.004-3.006.41-3.847 1.218-.842.772-1.39 1.781-1.644 3.029l-6.385-2.132a11.043 11.043 0 0 1 2.083-3.8c.987-1.175 2.287-2.113 3.899-2.813 1.648-.736 3.646-1.107 5.992-1.112 3.594-.007 6.437.885 8.531 2.677 2.094 1.793 3.144 4.394 3.151 7.804l.021 10.175c.003 1.1.517 1.649 1.544 1.647l2.2-.005.012 5.72-4.62.01c-1.357.002-2.476-.325-3.357-.983-.882-.659-1.324-1.538-1.326-2.638v-.055l-1.045.002c-.146.441-.475 1.028-.986 1.762-.512.698-1.318 1.323-2.416 1.875-1.099.553-2.602.831-4.509.835zm1.199-5.613c1.943-.004 3.519-.539 4.726-1.604 1.245-1.103 1.865-2.553 1.861-4.349l-.001-.55-6.985.014c-1.283.003-2.291.28-3.023.831-.732.552-1.097 1.323-1.095 2.313s.388 1.796 1.16 2.417c.771.622 1.89.931 3.357.928zm22.149 15.794-.079-38.279 6.82-.015.007 3.3.99-.002c.621-1.064 1.591-2.001 2.909-2.811 1.318-.846 3.206-1.271 5.662-1.276 2.2-.005 4.236.541 6.109 1.637 1.872 1.059 3.379 2.633 4.52 4.721 1.141 2.087 1.714 4.616 1.72 7.586l.002.88c.006 2.97-.557 5.501-1.689 7.594-1.133 2.092-2.633 3.69-4.5 4.794-1.868 1.067-3.902 1.603-6.102 1.608-2.457.005-4.346-.395-5.667-1.199-1.286-.84-2.222-1.737-2.811-2.689l-.99.002.029 14.135zm14.267-16.309c2.163-.005 3.94-.687 5.33-2.046 1.427-1.396 2.138-3.415 2.133-6.055l-.001-.55c-.006-2.64-.725-4.636-2.158-5.99-1.433-1.391-3.213-2.084-5.339-2.079-2.127.004-3.904.705-5.331 2.101-1.427 1.36-2.138 3.359-2.132 5.999l.001.55c.005 2.64.724 4.656 2.157 6.046 1.433 1.354 3.213 2.028 5.34 2.024z" fill="#323537"/><path d="m439.165 782.664v14.144c0 .704.021 1.355.064 1.952.064.576.192 1.067.384 1.472.213.406.523.726.928.96.405.214.96.32 1.664.32s1.259-.106 1.664-.32c.405-.234.704-.554.896-.96.213-.405.341-.896.384-1.472.064-.597.096-1.248.096-1.952v-14.144h4.8v13.504c0 1.536-.107 2.88-.32 4.032-.192 1.152-.576 2.112-1.152 2.88s-1.376 1.344-2.4 1.728-2.347.576-3.968.576-2.944-.192-3.968-.576-1.824-.96-2.4-1.728-.971-1.728-1.184-2.88c-.192-1.152-.288-2.496-.288-4.032v-13.504zm20.307 7.488h-.352v14.848h-4.096v-22.336h5.76l5.088 14.848h.352v-14.848h4.096v22.336h-5.76zm16.116-7.488h7.2c3.008 0 5.237.96 6.688 2.88s2.176 4.683 2.176 8.288c0 3.606-.725 6.368-2.176 8.288s-3.68 2.88-6.688 2.88h-7.2zm6.88 18.56c1.429 0 2.475-.458 3.136-1.376.661-.917.992-2.25.992-4v-4.064c0-1.728-.331-3.05-.992-3.968-.661-.917-1.707-1.376-3.136-1.376h-2.144v14.784zm14.099 3.776v-22.336h14.272v3.936h-9.472v5.12h9.152v3.936h-9.152v5.408h9.472v3.936zm25.076 0h-4.736v-22.336h8.64c1.088 0 2.059.171 2.912.512.853.32 1.568.79 2.144 1.408a5.952 5.952 0 0 1 1.344 2.24c.299.875.448 1.856.448 2.944 0 1.579-.341 2.934-1.024 4.064-.683 1.131-1.653 1.878-2.912 2.24l4.384 8.928h-5.248l-3.744-8.288h-2.208zm2.752-12c1.131 0 1.909-.213 2.336-.64.448-.426.672-1.13.672-2.112v-.96c0-.981-.224-1.685-.672-2.112-.427-.426-1.205-.64-2.336-.64h-2.752v6.464zm19.795 12.384c-1.877 0-3.509-.309-4.896-.928-1.386-.618-2.506-1.461-3.36-2.528l2.784-3.072c.811.896 1.696 1.558 2.656 1.984.982.427 1.974.64 2.976.64 1.152 0 2.027-.256 2.624-.768.598-.512.896-1.248.896-2.208 0-.789-.234-1.386-.704-1.792-.448-.405-1.216-.693-2.304-.864l-2.336-.384c-2.005-.341-3.456-1.077-4.352-2.208-.896-1.152-1.344-2.549-1.344-4.192 0-2.154.704-3.818 2.112-4.992 1.408-1.194 3.382-1.792 5.92-1.792 1.728 0 3.232.267 4.512.8 1.28.534 2.315 1.259 3.104 2.176l-2.72 3.04a6.265 6.265 0 0 0 -2.112-1.536c-.81-.384-1.728-.576-2.752-.576-2.154 0-3.232.886-3.232 2.656 0 .768.235 1.344.704 1.728.491.384 1.28.672 2.368.864l2.336.416c1.814.32 3.211 1.003 4.192 2.048.982 1.046 1.472 2.454 1.472 4.224a7.68 7.68 0 0 1 -.544 2.912 6.394 6.394 0 0 1 -1.632 2.304c-.725.64-1.621 1.142-2.688 1.504-1.045.363-2.272.544-3.68.544zm23.22-18.784v18.4h-4.8v-18.4h-6.432v-3.936h17.664v3.936zm22.388 18.4-1.409-5.376h-6.112l-1.375 5.376h-4.864l6.048-22.336h6.784l6.048 22.336zm-4.32-17.696h-.257l-2.175 8.448h4.608zm17.267 2.848h-.352v14.848h-4.096v-22.336h5.76l5.088 14.848h.352v-14.848h4.096v22.336h-5.76zm16.116-7.488h7.2c3.008 0 5.237.96 6.688 2.88 1.45 1.92 2.176 4.683 2.176 8.288 0 3.606-.726 6.368-2.176 8.288-1.451 1.92-3.68 2.88-6.688 2.88h-7.2zm6.879 18.56c1.43 0 2.475-.458 3.136-1.376.662-.917.993-2.25.993-4v-4.064c0-1.728-.331-3.05-.993-3.968-.661-.917-1.706-1.376-3.136-1.376h-2.144v14.784z" fill="#ba6dd9"/><path d="m169 186.376c0-9.044 7.332-16.376 16.376-16.376h342.248c9.044 0 16.376 7.332 16.376 16.376v252.799c0 9.044-7.332 16.376-16.376 16.376h-342.248c-9.044 0-16.376-7.332-16.376-16.376z" fill="#f7f7f5"/><g stroke="#323537" stroke-width="12"><path d="m356.5 170h-171.124c-9.044 0-16.376 7.332-16.376 16.376v126.399m187.5-142.775h171.124c9.044 0 16.376 7.332 16.376 16.376v126.399m-187.5-142.775v142.775m0 142.776h171.124c9.044 0 16.376-7.332 16.376-16.376v-126.4m-187.5 142.776h-171.124c-9.044 0-16.376-7.332-16.376-16.376v-126.4m187.5 142.776v-142.776m0 0h-187.5m187.5 0h187.5"/><circle cx="356.808" cy="312.776" fill="#efd6f9" r="46.709"/><path d="m209.798 213.127h108.771" stroke-linecap="round"/><path d="m209.798 242.808h67.832" stroke-linecap="round"/><path d="m209.798 385.071h108.771" stroke-linecap="round"/><path d="m209.798 414.753h67.832" stroke-linecap="round"/><path d="m395.048 385.071h108.771" stroke-linecap="round"/><path d="m395.048 414.753h67.831" stroke-linecap="round"/><path d="m395.048 213.127h108.771" stroke-linecap="round"/><path d="m395.048 242.808h67.831" stroke-linecap="round"/></g></g><rect height="960" rx="20" stroke="#323537" stroke-linecap="round" stroke-linejoin="round" stroke-width="12" width="700" x="6" y="6"/></svg>