<svg fill="none" height="972" width="712" xmlns="http://www.w3.org/2000/svg" xmlns:xlink="http://www.w3.org/1999/xlink"><clipPath id="a"><rect height="960" rx="20" width="700" x="6" y="6"/></clipPath><g clip-path="url(#a)"><rect fill="#f7f7f5" height="960" rx="20" width="700" x="6" y="6"/><path d="m-348.594-336.407h1073.2v1165.94h-1073.2z" fill="#68cfbb" transform="matrix(.97309851 -.23038943 .23038943 .97309851 68.126918 -89.362221)"/><path d="m329.5 212v56m140.5-34v39m-75 76v39m152-39v39m-355-154v39m278-33h-278m355 115h-152m-203-28v56m278-63v35m-278 82v56" stroke="#418275" stroke-width="12"/><path d="m186.797 887.932-.08-38.5 7.26-.015.08 38.499zm14.722-.031-.056-27.28 6.82-.014.007 3.575.99-.002c.438-.954 1.261-1.854 2.469-2.7 1.209-.883 3.041-1.327 5.498-1.332 2.126-.004 3.979.487 5.558 1.474 1.615.95 2.864 2.286 3.748 4.007.884 1.685 1.328 3.664 1.332 5.937l.034 16.28-6.93.015-.032-15.73c-.005-2.054-.521-3.593-1.55-4.617-.992-1.025-2.423-1.535-4.293-1.531-2.127.004-3.775.723-4.946 2.155-1.17 1.396-1.753 3.359-1.748 5.889l.029 13.86zm37.65-.078-.045-21.56-6.93.014-.012-5.72 6.93-.014-.01-5.06c-.004-1.87.543-3.356 1.64-4.458 1.135-1.139 2.6-1.711 4.397-1.714l7.15-.015.012 5.72-4.73.009c-1.027.003-1.539.554-1.537 1.654l.008 3.85 7.15-.015.012 5.72-7.15.015.045 21.56zm31.567.705c-2.713.005-5.153-.54-7.318-1.635a12.372 12.372 0 0 1 -5.125-4.775c-1.251-2.087-1.88-4.597-1.886-7.531l-.002-.88c-.006-2.933.612-5.446 1.855-7.539a12.371 12.371 0 0 1 5.105-4.795c2.161-1.105 4.598-1.66 7.311-1.665 2.714-.006 5.153.539 7.319 1.634a12.378 12.378 0 0 1 5.125 4.775c1.251 2.087 1.879 4.598 1.885 7.531l.002.88c.006 2.933-.612 5.446-1.854 7.539a12.377 12.377 0 0 1 -5.105 4.795c-2.162 1.105-4.599 1.66-7.312 1.666zm-.013-6.16c2.127-.005 3.885-.687 5.276-2.046 1.39-1.397 2.083-3.378 2.078-5.945l-.001-.55c-.006-2.566-.707-4.527-2.103-5.88-1.359-1.391-3.121-2.084-5.284-2.079-2.127.004-3.885.704-5.276 2.101-1.39 1.359-2.083 3.322-2.077 5.889l.001.55c.005 2.566.706 4.545 2.102 5.935 1.396 1.354 3.158 2.029 5.284 2.025zm31.168 5.325 10.041-38.521 12.649-.026 10.2 38.479-7.48.015-2.107-8.465-13.75.028-2.073 8.474zm11.244-15.203 10.34-.022-4.714-18.745-.99.002zm26.475 15.125-.057-27.28 6.82-.014.006 3.08.99-.002c.402-1.101 1.06-1.909 1.975-2.425.953-.515 2.052-.774 3.299-.776l3.3-.007.013 6.16-3.41.007c-1.76.004-3.208.483-4.342 1.439-1.135.919-1.701 2.35-1.696 4.293l.032 15.51zm33.656.7c-2.64.005-5.043-.54-7.208-1.635-2.129-1.096-3.819-2.687-5.07-4.775-1.251-2.087-1.88-4.616-1.886-7.586l-.002-.77c-.006-2.97.612-5.501 1.855-7.594 1.242-2.092 2.925-3.691 5.05-4.795 2.161-1.105 4.561-1.66 7.201-1.665 2.604-.005 4.841.448 6.713 1.361s3.378 2.175 4.518 3.786c1.177 1.574 1.95 3.369 2.321 5.385l-6.707 1.444c-.223-1.65-.868-3.023-1.933-4.121-1.066-1.135-2.644-1.7-4.734-1.695-2.09.004-3.849.686-5.276 2.046-1.39 1.359-2.083 3.341-2.077 5.944l.001.55c.005 2.567.706 4.545 2.102 5.936 1.433 1.353 3.194 2.028 5.284 2.024 2.09-.005 3.666-.54 4.727-1.605 1.098-1.102 1.791-2.534 2.081-4.294l6.713 1.581a15.094 15.094 0 0 1 -2.464 5.34c-1.133 1.579-2.634 2.829-4.502 3.749-1.868.921-4.104 1.384-6.707 1.389zm19.41-.81-.08-38.5 6.93-.015.03 14.575.99-.002c.439-.881 1.243-1.726 2.415-2.535 1.208-.846 3.022-1.271 5.442-1.276 2.127-.004 3.98.487 5.559 1.474 1.615.95 2.864 2.285 3.748 4.007.883 1.685 1.327 3.664 1.332 5.937l.034 16.28-6.93.014-.033-15.73c-.004-2.053-.52-3.592-1.549-4.616-.992-1.025-2.423-1.535-4.293-1.532-2.127.005-3.776.723-4.946 2.156-1.17 1.396-1.753 3.358-1.748 5.888l.029 13.86zm33.892-.071-.057-27.279 6.93-.015.056 27.28zm3.401-30.477c-1.246.003-2.311-.398-3.192-1.203-.845-.805-1.269-1.867-1.272-3.187s.417-2.385 1.259-3.193c.878-.809 1.94-1.214 3.187-1.217 1.283-.002 2.348.399 3.193 1.204s1.268 1.867 1.271 3.187-.417 2.384-1.258 3.193c-.842.808-1.904 1.214-3.188 1.216zm21.658 30.426c-1.797.003-3.265-.544-4.404-1.641-1.102-1.135-1.655-2.637-1.659-4.507l-.032-15.4-6.82.014-.012-5.72 6.82-.014-.017-8.47 6.93-.014.017 8.47 7.48-.016.012 5.72-7.48.016.03 14.19c.002 1.1.516 1.649 1.543 1.647l5.28-.011.012 5.72zm26.098.715c-2.714.006-5.117-.557-7.209-1.69-2.056-1.169-3.672-2.797-4.85-4.885-1.141-2.124-1.715-4.616-1.721-7.476l-.001-.66c-.006-2.86.557-5.336 1.69-7.429 1.132-2.129 2.724-3.764 4.774-4.904 2.051-1.178 4.434-1.77 7.147-1.775 2.676-.006 5.006.594 6.989 1.8 1.982 1.169 3.525 2.816 4.63 4.941 1.104 2.087 1.659 4.525 1.665 7.311l.005 2.365-19.855.041c.077 1.87.777 3.39 2.099 4.561 1.323 1.171 2.937 1.754 4.844 1.75 1.943-.004 3.372-.429 4.287-1.274s1.61-1.782 2.085-2.809l5.671 2.958c-.512.954-1.261 2.001-2.249 3.14-.951 1.102-2.232 2.058-3.844 2.868-1.612.773-3.664 1.162-6.157 1.167zm-6.692-17.531 12.76-.026c-.15-1.577-.794-2.84-1.933-3.791-1.102-.951-2.551-1.425-4.348-1.421-1.87.004-3.354.483-4.452 1.439s-1.773 2.222-2.027 3.799zm38.82 17.465c-2.64.005-5.043-.54-7.209-1.635-2.129-1.096-3.819-2.687-5.07-4.775-1.251-2.087-1.879-4.616-1.885-7.586l-.002-.77c-.006-2.97.612-5.501 1.854-7.594 1.243-2.092 2.926-3.691 5.05-4.795 2.161-1.105 4.562-1.66 7.202-1.665 2.603-.006 4.841.448 6.713 1.361s3.378 2.175 4.518 3.786c1.176 1.574 1.95 3.369 2.321 5.385l-6.707 1.444c-.224-1.65-.868-3.024-1.934-4.121-1.065-1.135-2.643-1.7-4.733-1.696-2.09.005-3.849.687-5.276 2.046-1.391 1.36-2.083 3.341-2.078 5.945l.001.55c.006 2.566.706 4.545 2.103 5.935 1.432 1.354 3.194 2.029 5.284 2.024 2.09-.004 3.665-.539 4.727-1.604 1.097-1.103 1.791-2.534 2.081-4.295l6.713 1.581a15.108 15.108 0 0 1 -2.464 5.341c-1.133 1.579-2.634 2.828-4.502 3.749-1.868.92-4.104 1.383-6.707 1.389zm29-.83c-1.796.003-3.264-.544-4.403-1.641-1.103-1.135-1.656-2.637-1.66-4.507l-.031-15.4-6.82.014-.012-5.72 6.82-.014-.018-8.47 6.93-.014.018 8.47 7.48-.016.011 5.72-7.48.016.03 14.19c.002 1.1.517 1.649 1.543 1.647l5.28-.011.012 5.72zm25.029.388c-2.127.004-3.998-.469-5.613-1.419-1.579-.986-2.81-2.34-3.693-4.062-.884-1.721-1.328-3.701-1.333-5.937l-.033-16.28 6.93-.015.032 15.73c.004 2.054.503 3.593 1.495 4.617 1.029 1.025 2.478 1.535 4.348 1.531 2.127-.004 3.775-.704 4.946-2.1 1.17-1.432 1.753-3.414 1.747-5.944l-.028-13.86 6.93-.014.056 27.28-6.82.014-.007-3.575-.99.002c-.438.918-1.262 1.818-2.47 2.7-1.208.883-3.04 1.327-5.497 1.332zm23.496-.489-.057-27.28 6.82-.014.007 3.08.99-.002c.401-1.101 1.059-1.909 1.975-2.424.952-.515 2.051-.774 3.298-.777l3.3-.007.013 6.16-3.41.007c-1.76.004-3.208.484-4.342 1.439-1.135.919-1.701 2.35-1.696 4.294l.032 15.51zm33.271.701c-2.713.006-5.116-.558-7.208-1.69-2.056-1.169-3.673-2.797-4.851-4.885-1.141-2.124-1.714-4.616-1.72-7.476l-.001-.66c-.006-2.86.557-5.337 1.689-7.429 1.132-2.129 2.724-3.764 4.775-4.905 2.051-1.177 4.433-1.769 7.146-1.775 2.677-.005 5.007.595 6.989 1.801 1.982 1.169 3.526 2.816 4.63 4.94 1.105 2.088 1.66 4.525 1.665 7.312l.005 2.365-19.855.041c.078 1.87.777 3.39 2.1 4.561 1.322 1.17 2.937 1.754 4.844 1.75 1.943-.004 3.372-.429 4.287-1.274s1.61-1.782 2.084-2.81l5.671 2.959c-.511.954-1.261 2.001-2.248 3.139-.951 1.102-2.233 2.058-3.844 2.868-1.612.774-3.665 1.163-6.158 1.168zm-6.691-17.531 12.76-.027c-.15-1.576-.795-2.84-1.933-3.791-1.102-.951-2.551-1.424-4.348-1.421-1.87.004-3.354.484-4.452 1.44-1.098.955-1.774 2.222-2.027 3.799z" fill="#323537"/><path d="m455.473 805v-3.552h4.8v-15.232h-4.8v-3.552h14.4v3.552h-4.8v15.232h4.8v3.552zm31.859-9.952.256-6.24h-.288l-4.16 11.488-4.16-11.488h-.288l.256 6.24v9.952h-4.16v-22.336h5.664l2.752 7.52h.256l2.752-7.52h5.28v22.336h-4.16zm9.108 9.952v-22.336h8.64c1.088 0 2.058.171 2.912.512.853.32 1.568.789 2.144 1.408a5.944 5.944 0 0 1 1.344 2.24c.298.875.448 1.856.448 2.944s-.15 2.069-.448 2.944a5.944 5.944 0 0 1 -1.344 2.24c-.576.619-1.291 1.099-2.144 1.44-.854.32-1.824.48-2.912.48h-3.808v8.128zm4.832-12h2.592c1.13 0 1.909-.213 2.336-.64.448-.427.672-1.131.672-2.112v-.96c0-.981-.224-1.685-.672-2.112-.427-.427-1.206-.64-2.336-.64h-2.592zm16.147 12v-22.336h4.832v18.4h9.6v3.936zm20.084 0v-22.336h14.272v3.936h-9.472v5.12h9.152v3.936h-9.152v5.408h9.472v3.936zm31.699-9.952.256-6.24h-.288l-4.16 11.488-4.16-11.488h-.288l.256 6.24v9.952h-4.16v-22.336h5.664l2.752 7.52h.256l2.752-7.52h5.28v22.336h-4.16zm9.236 9.952v-22.336h14.272v3.936h-9.472v5.12h9.152v3.936h-9.152v5.408h9.472v3.936zm24.307-14.848h-.352v14.848h-4.096v-22.336h5.76l5.088 14.848h.352v-14.848h4.096v22.336h-5.76zm26.068-3.552v18.4h-4.8v-18.4h-6.432v-3.936h17.664v3.936z" fill="#3ec4aa"/><g stroke="#323537" stroke-linejoin="round" stroke-width="12"><rect fill="#55ab9a" height="58" rx="10" width="97" x="282" y="153"/><rect fill="#f7f7f5" height="58" rx="10" width="97" x="143" y="269"/><rect fill="#f7f7f5" height="58" rx="10" width="97" x="282" y="269"/><rect fill="#f7f7f5" height="58" rx="10" width="97" x="421" y="269"/><rect fill="#f7f7f5" height="58" rx="10" width="97" x="143" y="382"/><rect fill="#f7f7f5" height="58" rx="10" width="97" x="143" y="492"/><rect fill="#f7f7f5" height="58" rx="10" width="97" x="498" y="382"/><rect fill="#f7f7f5" height="58" rx="10" width="97" x="346" y="382"/></g></g><rect height="960" rx="20" stroke="#323537" stroke-linecap="round" stroke-linejoin="round" stroke-width="12" width="700" x="6" y="6"/></svg>