<svg width="500" height="500" fill="none" xmlns="http://www.w3.org/2000/svg"><path fill-rule="evenodd" clip-rule="evenodd" d="M500 250c0 138.071-111.929 250-250 250S0 388.071 0 250 111.929 0 250 0s250 111.929 250 250zm-352.3-9.81l.011.01c9.535 9.143 21.535 13.589 37.887 13.589 16.347 0 29.378-4.443 38.793-13.594 9.531-9.141 14.206-21.498 14.206-36.808V117h-28.835v87.129c0 7.475-2.146 13.117-6.226 17.197l-.01.01-.011.011c-3.918 4.027-9.767 6.205-17.917 6.205-8.14 0-12.977-2.172-17.026-6.216-3.961-4.076-6.052-9.722-6.052-17.207V117h-28.834v86.387c0 15.304 4.608 27.658 14.014 36.803zm99.607 11.003l39.299-67.672L247.69 117h33.106l26.647 48.501h5.625L339.715 117h33.105l-38.915 66.521 39.299 67.672h-33.106l-27.03-49.652h-5.625l-27.031 49.652h-33.105zm54.662 136.391c9.715 0 15.873-7.51 22.033-15.023h.001l.46-.561.238-.29c5.071 7.146 11.795 13.546 20.634 17.162.806.323 2.578.645 4.028.645 4.349 0 7.249-2.9 10.149-5.8.644-.644 1.289-1.611 1.289-2.899 0-3.89-1.285-11.746-2.638-20.016v-.001c-.944-5.773-1.922-11.747-2.518-16.713-.322-2.095-1.127-9.344-1.127-10.311 0-1.933.161-3.06.322-4.188 1.289-7.41 8.699-16.593 9.827-16.593 1.289 0 2.9 1.128 3.544 2.255.644 1.128 1.128 3.061 1.128 4.35 0 2.739-1.289 4.994-2.739 7.41-.322.484-.483.967-.483 1.289 0 2.417.966 4.028 2.416 5.155 1.128.967 3.866 2.095 5.639 2.095.805 0 .966-.162 2.255-1.773 2.255-2.899 4.672-7.249 4.672-13.37 0-3.222-.806-8.055-3.061-10.472-3.383-3.544-6.927-5.799-15.788-5.799-3.06 0-9.665 2.9-14.337 10.31-3.866 6.122-5.8 15.304-5.8 19.654 0 3.222 2.9 27.386 5.155 38.018.806 4.028.806 4.35.806 4.994 0 .645-.644 1.289-1.611 1.289-.805 0-1.611-.322-3.222-1.772-2.988-2.689-4.867-6.055-6.742-9.414-1.158-2.074-2.315-4.145-3.729-6.051-.658-.878-1.316-1.423-2.14-1.757-1.303-.782-2.961-1.143-3.691-1.143-4.509 0-9.198 5.071-13.775 10.021-2.944 3.185-5.842 6.319-8.617 8.022-.806.483-1.772.644-2.739.644-1.45 0-2.738-.483-3.222-1.933-.644-2.094-.805-4.027-.805-5.96 0-5.467 2.108-10.359 4.255-15.341.637-1.478 1.277-2.963 1.866-4.474 6.922-18.302 17.774-34.724 28.823-51.444 4.123-6.239 8.273-12.52 12.257-18.955.967-1.611 1.611-3.544 1.611-5.639 0-1.611-.322-3.06-1.289-4.51-.805-1.128-2.577-1.772-4.188-1.772-.833 0-1.559.071-2.329.146-.868.085-1.792.176-2.987.176-4.515 0-6.285 4.658-7.939 9.013v.001h-.001v.001c-.648 1.705-1.278 3.364-2.048 4.678-12.244 20.942-26.581 46.718-33.508 64.761a543.507 543.507 0 0 1-1.44 3.678c-2.968 7.534-5.488 13.93-5.488 20.325 0 1.933.162 3.705.484 5.477 1.611 8.861 14.982 12.405 16.109 12.405zM177.69 282.066c.161-.967.161-1.45.161-1.772 0-.484-.645-.806-1.45-1.128-1.933-.806-4.672-1.289-6.122-1.289-.711 0-1.171.157-1.685.333-.65.221-1.386.473-2.825.473-.645 0-.806 0-1.772 2.094-3.955 8.49-7.321 17.4-10.343 25.396v.001a699.327 699.327 0 0 1-3.351 8.755c-1.288 3.383-2.094 5.8-2.577 7.572-.322 1.45-1.289 2.255-2.739 2.255-1.377 0-4.217-.581-7.2-1.192h-.001c-3.298-.675-6.77-1.385-8.631-1.385-1.45 0-2.255.322-3.222.805-1.289.644-1.933.967-1.933 2.094 0 .484 0 1.289.805 1.933 3.706 3.061 10.033 7.25 15.833 10.15.644.322.805.644.805.966 0 .236-.086.472-.196.771-.04.11-.083.227-.126.357-3.155 7.59-5.465 15.784-7.705 23.732v.001h-.001v.001c-1.421 5.04-2.814 9.981-4.376 14.607-.484 1.45-.645 3.544-.645 4.833 0 1.449.484 2.899 1.772 3.866 1.289.966 3.867 1.772 5.8 1.772.644 0 1.772-.161 2.416-.483 2.256-1.128 3.867-5.317 4.028-6.766.577-4.808 2.76-11.623 4.632-17.467v-.001h.001c1.264-3.948 2.387-7.453 2.777-9.597.182-.999.568-1.947.958-2.902.301-.738.603-1.48.814-2.253l.029-.109c.64-2.399 1.44-5.402 2.71-7.623.644-1.128 1.611-1.933 3.061-2.417 1.121-.374 3.376-.96 6.177-1.688 4.088-1.063 9.341-2.429 13.931-3.879-4.983 8.57-8.697 17.57-8.697 27.476 0 4.028.644 8.861 2.416 13.371 1.45 3.706 5.961 7.25 12.083 10.149.966.484 2.416.806 3.866.806 5.628 0 9.971-4.654 14.473-9.477l.026-.028c10.31-10.954 16.109-25.936 20.298-43.174.322-1.127.644-1.288 1.933-1.288 1.128 0 3.061 0 6.283-.484 2.212-.34 4.56-.95 6.758-1.521 1.695-.441 3.301-.858 4.687-1.111-6.525 10.157-11.94 20.797-11.94 32.757 0 4.028.644 8.861 2.416 13.371 1.45 3.706 5.961 7.25 12.083 10.149.966.484 2.416.806 3.866.806 5.628 0 9.971-4.654 14.473-9.477l.026-.028c10.31-10.954 16.109-25.936 20.298-43.174-.063-3.053-.471-7.432-.973-10.445-.823-2.467-1.658-4.313-2.482-6.136v-.001c-.686-1.515-1.364-3.015-2.023-4.843-.434-1.16-.869-1.537-1.892-2.423l-.002-.002-.152-.132a65.68 65.68 0 0 1-.209-.182c-2.739-2.416-5.96-3.061-8.538-3.061-7.088 0-13.854 7.572-19.009 14.821-.337.472-.604.809-.835 1.079-1.87-1.097-4.96-1.723-8.175-1.723-1.598 0-3.195.09-5.012.192h-.003c-2.396.135-5.175.291-8.84.291-4.671 0-6.766-4.833-8.216-8.86-.434-1.16-.869-1.537-1.891-2.423h-.001l-.159-.138-.204-.178c-2.739-2.416-5.96-3.061-8.538-3.061-6.467 0-12.667 6.304-17.619 12.914-.81.165-1.909.411-2.814.618-4.507 1.035-8.211 2.75-11.709 4.371-3.308 1.532-6.432 2.979-9.878 3.684-1.611.322-3.544.644-4.027.644-.322 0-.644-.161-.644-.483 0-.483 2.094-6.605 3.705-9.988 1.463-3.109 3.134-6.218 4.824-9.364 4.266-7.938 8.658-16.111 10.158-25.11zm30.581 37.575c.536 1.072.806 2.215.967 3.343.161.806.161 2.739.161 3.383 0 15.813-8.217 28.127-17.256 41.673l-.027.04-.053.08-.707 1.059c-1.288 1.933-1.611 2.416-2.738 2.899a4.475 4.475 0 0 0-.538.348c-.572.406-1.325.941-2.523.941-.483 0-.967 0-1.45-.322-1.45-.967-3.383-4.027-3.866-5.316-.483-1.128-.483-1.772-.483-2.256 0-18.848 15.143-38.824 20.137-45.106.451-.633 1.156-1.164 1.801-1.65.506-.381.976-.735 1.259-1.089.806-.967 1.772-1.611 2.417-1.611.644 0 2.363 2.512 2.899 3.584zm61.796 2.943c-.148-1.121-.353-2.675-1.218-4.015-.764-1.185-1.95-2.512-2.594-2.512-.645 0-1.611.644-2.417 1.611-.283.354-.753.708-1.259 1.089-.645.486-1.35 1.017-1.801 1.65-4.994 6.282-20.137 26.258-20.137 45.106 0 .484 0 1.128.483 2.256.483 1.289 2.416 4.349 3.866 5.316.483.322.967.322 1.45.322 1.198 0 1.951-.535 2.523-.941.197-.14.373-.265.538-.348 1.127-.483 1.45-.966 2.738-2.899l.787-1.179c9.039-13.546 17.256-25.86 17.256-41.673 0-.644 0-2.577-.161-3.383l-.054-.4z" fill="#323537"/></svg>