<svg width="90" height="90" fill="none" xmlns="http://www.w3.org/2000/svg"><g clip-path="url(#clip0)"><path d="M75.191-.046H14.46C6.474-.046 0 6.428 0 14.414v60.732c0 7.986 6.474 14.46 14.46 14.46H75.19c7.986 0 14.46-6.474 14.46-14.46V14.414c0-7.986-6.474-14.46-14.46-14.46z" fill="#FFD02F"/><path fill-rule="evenodd" clip-rule="evenodd" d="M60.73 14.414h-8.675l7.23 13.014-15.906-13.014h-8.676l7.953 15.906-16.63-15.906h-8.675l8.676 20.244-8.676 40.487h8.676l16.629-43.38-7.953 43.38h8.675l15.906-46.271-7.23 46.271h8.676l15.906-50.61L60.73 14.415z" fill="#050038"/></g><defs><clipPath id="clip0"><path fill="#fff" d="M0 0H90V90H0z"/></clipPath></defs></svg>