<svg fill="none" height="972" width="712" xmlns="http://www.w3.org/2000/svg" xmlns:xlink="http://www.w3.org/1999/xlink"><clipPath id="a"><rect height="960" rx="20" width="700" x="6" y="6"/></clipPath><g clip-path="url(#a)"><rect fill="#f7f7f5" height="960" rx="20" width="700" x="6" y="6"/><path d="m-318.935-211.13h1073.2v1037.2h-1073.2z" fill="#c494d6" transform="matrix(.97309851 -.23038943 .23038943 .97309851 40.062293 -79.158963)"/><path d="m276.468 888.516c-4.73.01-8.436-1.266-11.118-3.827-2.645-2.561-3.972-6.042-3.981-10.442l-.052-24.97 7.26-.015.052 25.19c.005 2.347.669 4.197 1.992 5.551 1.359 1.354 3.304 2.028 5.834 2.023s4.453-.688 5.77-2.047c1.354-1.359 2.029-3.213 2.024-5.559l-.052-25.19 7.26-.015.051 24.97c.01 4.4-1.322 7.886-3.993 10.458-2.635 2.572-6.317 3.863-11.047 3.873zm33.653-.07c-3.556.008-6.473-.756-8.75-2.292-2.276-1.535-3.656-3.732-4.138-6.591l6.376-1.663c.371 1.906 1.144 3.224 2.319 3.955 1.211.731 2.605 1.095 4.182 1.091 1.613-.003 2.804-.281 3.573-.832.769-.588 1.152-1.304 1.151-2.148-.002-.843-.37-1.484-1.104-1.922-.735-.475-1.909-.858-3.523-1.148l-1.54-.272c-1.908-.362-3.65-.854-5.228-1.474-1.578-.657-2.845-1.552-3.801-2.687s-1.435-2.6-1.439-4.397c-.006-2.713.98-4.787 2.957-6.221 1.977-1.471 4.579-2.21 7.805-2.216 3.044-.007 5.575.666 7.595 2.019 2.019 1.352 3.343 3.128 3.971 5.327l-6.431 1.993c-.296-1.393-.903-2.382-1.821-2.966-.882-.585-1.982-.876-3.302-.873-1.32.002-2.328.243-3.024.721-.695.441-1.042 1.065-1.041 1.872.002.88.37 1.539 1.104 1.978.735.402 1.725.711 2.972.929l1.541.271c2.054.363 3.907.854 5.558 1.474 1.688.583 3.01 1.442 3.965 2.577.993 1.098 1.491 2.6 1.495 4.507.006 2.86-1.035 5.08-3.122 6.661-2.05 1.544-4.816 2.32-8.3 2.327zm29.943-.062c-2.713.006-5.116-.558-7.209-1.69-2.055-1.169-3.672-2.797-4.85-4.885-1.141-2.124-1.714-4.616-1.72-7.476l-.002-.66c-.006-2.86.558-5.336 1.69-7.429 1.132-2.129 2.724-3.764 4.775-4.905 2.051-1.177 4.433-1.769 7.146-1.775 2.677-.005 5.006.595 6.989 1.801 1.982 1.169 3.526 2.816 4.63 4.94 1.105 2.088 1.66 4.525 1.665 7.312l.005 2.365-19.855.041c.077 1.87.777 3.39 2.1 4.561 1.322 1.17 2.937 1.754 4.843 1.75 1.944-.004 3.373-.429 4.288-1.274s1.609-1.782 2.084-2.81l5.671 2.959c-.511.954-1.261 2.001-2.248 3.139-.951 1.102-2.233 2.058-3.844 2.868-1.612.774-3.665 1.163-6.158 1.168zm-6.691-17.531 12.76-.026c-.15-1.577-.795-2.84-1.933-3.791-1.102-.952-2.552-1.425-4.348-1.421-1.87.003-3.354.483-4.452 1.439-1.098.955-1.774 2.222-2.027 3.799zm26.002 16.721-.056-27.28 6.82-.014.006 3.08.99-.002c.401-1.101 1.06-1.909 1.975-2.424.953-.515 2.052-.774 3.299-.777l3.3-.007.012 6.16-3.41.007c-1.76.004-3.207.484-4.342 1.439-1.134.919-1.7 2.35-1.696 4.294l.032 15.51zm35.552-.074-.08-38.5 7.26-.015.08 38.5zm14.722-.03-.057-27.28 6.82-.014.008 3.575.99-.002c.438-.954 1.261-1.855 2.469-2.7 1.208-.883 3.041-1.327 5.497-1.332 2.127-.004 3.98.487 5.558 1.474 1.616.95 2.865 2.285 3.749 4.007.883 1.685 1.327 3.664 1.332 5.937l.034 16.28-6.93.015-.033-15.73c-.004-2.054-.521-3.593-1.549-4.617-.993-1.025-2.424-1.535-4.294-1.531-2.126.004-3.775.722-4.945 2.155-1.171 1.396-1.753 3.359-1.748 5.889l.029 13.86zm43.589-.09c-1.796.003-3.264-.544-4.403-1.641-1.102-1.135-1.656-2.637-1.659-4.507l-.032-15.4-6.82.014-.012-5.72 6.82-.014-.018-8.47 6.93-.014.018 8.47 7.48-.016.012 5.72-7.48.016.029 14.19c.002 1.1.517 1.649 1.543 1.647l5.28-.011.012 5.72zm26.098.715c-2.713.006-5.116-.557-7.208-1.69-2.056-1.169-3.673-2.797-4.851-4.885-1.141-2.124-1.714-4.616-1.72-7.476l-.001-.66c-.006-2.86.557-5.336 1.689-7.429 1.132-2.129 2.724-3.764 4.775-4.904 2.051-1.178 4.433-1.77 7.146-1.775 2.677-.006 5.007.594 6.989 1.8 1.983 1.169 3.526 2.816 4.63 4.941 1.105 2.087 1.66 4.525 1.665 7.311l.005 2.365-19.855.041c.078 1.87.777 3.39 2.1 4.561 1.322 1.171 2.937 1.754 4.844 1.75 1.943-.004 3.372-.429 4.287-1.274s1.61-1.782 2.084-2.809l5.671 2.958c-.511.954-1.261 2.001-2.248 3.14-.951 1.102-2.233 2.058-3.844 2.868-1.612.773-3.665 1.162-6.158 1.167zm-6.691-17.531 12.76-.026c-.15-1.577-.795-2.84-1.933-3.791-1.102-.951-2.551-1.425-4.348-1.421-1.87.004-3.354.483-4.452 1.439s-1.774 2.222-2.027 3.799zm26.003 16.721-.057-27.28 6.82-.014.006 3.08.99-.002c.401-1.101 1.06-1.909 1.975-2.424.953-.515 2.052-.774 3.299-.777l3.3-.007.013 6.16-3.41.008c-1.76.003-3.208.483-4.342 1.439-1.135.919-1.701 2.35-1.697 4.293l.033 15.51zm27.526-.057-8.746-27.262 7.37-.015 6.371 22.207.99-.002 6.279-22.233 7.37-.015-8.634 27.298zm24.412-.05-.057-27.28 6.93-.015.057 27.28zm3.402-30.477c-1.247.002-2.311-.399-3.193-1.204-.845-.805-1.269-1.867-1.271-3.187-.003-1.32.416-2.384 1.258-3.193.878-.808 1.941-1.214 3.188-1.216 1.283-.003 2.347.398 3.192 1.203s1.269 1.867 1.272 3.187c.002 1.32-.417 2.385-1.259 3.193-.841.808-1.904 1.214-3.187 1.217zm23.639 31.191c-2.713.005-5.116-.558-7.209-1.69-2.055-1.169-3.672-2.798-4.85-4.885-1.141-2.125-1.714-4.617-1.72-7.477l-.002-.66c-.006-2.86.558-5.336 1.69-7.428 1.132-2.129 2.724-3.764 4.775-4.905 2.051-1.178 4.433-1.769 7.146-1.775 2.677-.006 5.006.595 6.989 1.8 1.982 1.17 3.526 2.816 4.63 4.941 1.104 2.088 1.66 4.525 1.665 7.311l.005 2.365-19.855.042c.077 1.869.777 3.39 2.1 4.56 1.322 1.171 2.937 1.754 4.843 1.75 1.944-.004 3.373-.428 4.288-1.274.915-.845 1.609-1.781 2.084-2.809l5.671 2.958c-.511.955-1.261 2.001-2.248 3.14-.951 1.102-2.233 2.058-3.845 2.868-1.611.773-3.664 1.162-6.157 1.168zm-6.691-17.532 12.76-.026c-.15-1.576-.795-2.84-1.933-3.791-1.102-.951-2.552-1.425-4.348-1.421-1.87.004-3.354.484-4.452 1.439-1.098.956-1.774 2.222-2.027 3.799zm28.095 16.717-3.907-27.272 6.875-.014 2.467 22.6.99-.002 3.473-22.612 11.11-.023 3.567 22.597.99-.002 2.373-22.61 6.875-.014-3.793 27.288-11.495.024-3.567-22.598-.99.002-3.473 22.612z" fill="#323537"/><path d="m439.165 782.664v14.144c0 .704.021 1.354.064 1.952.064.576.192 1.066.384 1.472.213.405.523.725.928.96.405.213.96.32 1.664.32s1.259-.107 1.664-.32c.405-.235.704-.555.896-.96.213-.406.341-.896.384-1.472.064-.598.096-1.248.096-1.952v-14.144h4.8v13.504c0 1.536-.107 2.88-.32 4.032-.192 1.152-.576 2.112-1.152 2.88s-1.376 1.344-2.4 1.728-2.347.576-3.968.576-2.944-.192-3.968-.576-1.824-.96-2.4-1.728-.971-1.728-1.184-2.88c-.192-1.152-.288-2.496-.288-4.032v-13.504zm20.307 7.488h-.352v14.848h-4.096v-22.336h5.76l5.088 14.848h.352v-14.848h4.096v22.336h-5.76zm16.116-7.488h7.2c3.008 0 5.237.96 6.688 2.88s2.176 4.682 2.176 8.288c0 3.605-.725 6.368-2.176 8.288s-3.68 2.88-6.688 2.88h-7.2zm6.88 18.56c1.429 0 2.475-.459 3.136-1.376.661-.918.992-2.251.992-4v-4.064c0-1.728-.331-3.051-.992-3.968-.661-.918-1.707-1.376-3.136-1.376h-2.144v14.784zm14.099 3.776v-22.336h14.272v3.936h-9.472v5.12h9.152v3.936h-9.152v5.408h9.472v3.936zm25.076 0h-4.736v-22.336h8.64c1.088 0 2.059.17 2.912.512.853.32 1.568.789 2.144 1.408a5.937 5.937 0 0 1 1.344 2.24c.299.874.448 1.856.448 2.944 0 1.578-.341 2.933-1.024 4.064-.683 1.13-1.653 1.877-2.912 2.24l4.384 8.928h-5.248l-3.744-8.288h-2.208zm2.752-12c1.131 0 1.909-.214 2.336-.64.448-.427.672-1.131.672-2.112v-.96c0-.982-.224-1.686-.672-2.112-.427-.427-1.205-.64-2.336-.64h-2.752v6.464zm19.795 12.384c-1.877 0-3.509-.31-4.896-.928-1.386-.619-2.506-1.462-3.36-2.528l2.784-3.072c.811.896 1.696 1.557 2.656 1.984.982.426 1.974.64 2.976.64 1.152 0 2.027-.256 2.624-.768.598-.512.896-1.248.896-2.208 0-.79-.234-1.387-.704-1.792-.448-.406-1.216-.694-2.304-.864l-2.336-.384c-2.005-.342-3.456-1.078-4.352-2.208-.896-1.152-1.344-2.55-1.344-4.192 0-2.155.704-3.819 2.112-4.992 1.408-1.195 3.382-1.792 5.92-1.792 1.728 0 3.232.266 4.512.8 1.28.533 2.315 1.258 3.104 2.176l-2.72 3.04a6.238 6.238 0 0 0 -2.112-1.536c-.81-.384-1.728-.576-2.752-.576-2.154 0-3.232.885-3.232 2.656 0 .768.235 1.344.704 1.728.491.384 1.28.672 2.368.864l2.336.416c1.814.32 3.211 1.002 4.192 2.048.982 1.045 1.472 2.453 1.472 4.224a7.683 7.683 0 0 1 -.544 2.912 6.411 6.411 0 0 1 -1.632 2.304c-.725.64-1.621 1.141-2.688 1.504-1.045.362-2.272.544-3.68.544zm23.22-18.784v18.4h-4.8v-18.4h-6.432v-3.936h17.664v3.936zm22.388 18.4-1.409-5.376h-6.112l-1.375 5.376h-4.864l6.048-22.336h6.784l6.048 22.336zm-4.32-17.696h-.257l-2.175 8.448h4.608zm17.267 2.848h-.352v14.848h-4.096v-22.336h5.76l5.088 14.848h.352v-14.848h4.096v22.336h-5.76zm16.116-7.488h7.2c3.008 0 5.237.96 6.688 2.88 1.45 1.92 2.176 4.682 2.176 8.288 0 3.605-.726 6.368-2.176 8.288-1.451 1.92-3.68 2.88-6.688 2.88h-7.2zm6.879 18.56c1.43 0 2.475-.459 3.136-1.376.662-.918.993-2.251.993-4v-4.064c0-1.728-.331-3.051-.993-3.968-.661-.918-1.706-1.376-3.136-1.376h-2.144v14.784z" fill="#ba6dd9"/><path clip-rule="evenodd" d="m299 152c-8.837 0-16 7.163-16 16v59.536c0 8.836 7.163 16 16 16h195.274l21.134 21.94c3.153 3.273 8.649.816 8.649-3.867v-18.073h27.714c8.836 0 16-7.164 16-16v-59.536c0-8.837-7.164-16-16-16z" fill="#efd6f9" fill-rule="evenodd"/><path d="m494.274 243.536 4.321-4.163-1.77-1.837h-2.551zm21.134 21.94-4.321 4.162zm8.649-21.94v-6h-6v6zm-235.057-75.536c0-5.523 4.477-10 10-10v-12c-12.15 0-22 9.85-22 22zm0 59.536v-59.536h-12v59.536zm10 10c-5.523 0-10-4.478-10-10h-12c0 12.15 9.85 22 22 22zm195.274 0h-195.274v12h195.274zm25.455 23.777-21.134-21.94-8.642 8.325 21.134 21.94zm-1.672.296a.65.65 0 0 1 .116-.313.692.692 0 0 1 .293-.248 1.04 1.04 0 0 1 .592-.058c.317.051.559.207.671.323l-8.642 8.325c3.528 3.663 8.471 4.067 12.276 2.366a11.309 11.309 0 0 0 6.694-10.395zm0-18.073v18.073h12v-18.073zm33.714-6h-27.714v12h27.714zm10-10c0 5.522-4.477 10-10 10v12c12.15 0 22-9.85 22-22zm0-59.536v59.536h12v-59.536zm-10-10c5.523 0 10 4.477 10 10h12c0-12.15-9.85-22-22-22zm-252.771 0h252.771v-12h-252.771z" fill="#323537"/><path clip-rule="evenodd" d="m412.771 301c8.836 0 16 7.163 16 16v59.557c0 8.837-7.164 16-16 16h-195.274l-21.135 21.946c-3.152 3.273-8.648.816-8.648-3.867v-18.079h-27.714c-8.837 0-16-7.163-16-16v-59.557c0-8.837 7.163-16 16-16z" fill="#9773a6" fill-rule="evenodd"/><path d="m217.497 392.557-4.322-4.162 1.77-1.838h2.552zm-21.135 21.946 4.322 4.162zm-8.648-21.946v-6h6v6zm235.057-75.557c0-5.523-4.477-10-10-10v-12c12.15 0 22 9.85 22 22zm0 59.557v-59.557h12v59.557zm-10 10c5.523 0 10-4.477 10-10h12c0 12.15-9.85 22-22 22zm-195.274 0h195.274v12h-195.274zm-25.456 23.784 21.134-21.946 8.643 8.324-21.134 21.946zm1.673.295a.658.658 0 0 0 -.116-.313.682.682 0 0 0 -.293-.247 1.038 1.038 0 0 0 -.592-.059c-.317.052-.56.207-.672.324l8.643 8.324c-3.528 3.663-8.472 4.067-12.277 2.365a11.308 11.308 0 0 1 -6.693-10.394zm0-18.079v18.079h-12v-18.079zm-33.714-6h27.714v12h-27.714zm-10-10c0 5.523 4.477 10 10 10v12c-12.15 0-22-9.85-22-22zm0-59.557v59.557h-12v-59.557zm10-10c-5.523 0-10 4.477-10 10h-12c0-12.15 9.85-22 22-22zm252.771 0h-252.771v-12h252.771z" fill="#323537"/><g stroke="#323537" stroke-width="12"><circle fill="#f7f7f5" r="46.033" transform="matrix(-1 0 0 1 193.033 490.033)"/><path d="m164.498 525.18v-5.238a14.476 14.476 0 0 1 14.477-14.477h28.954a14.476 14.476 0 0 1 14.476 14.477v5.238m-28.953-34.192c-7.995 0-14.477-6.481-14.477-14.477 0-7.995 6.482-14.476 14.477-14.476s14.477 6.481 14.477 14.476c0 7.996-6.482 14.477-14.477 14.477z" stroke-linecap="round" stroke-linejoin="round"/><circle fill="#f7f7f5" r="46.033" transform="matrix(-1 0 0 1 518.033 344.033)"/><path d="m489.498 379.18v-5.238a14.476 14.476 0 0 1 14.477-14.477h28.953a14.476 14.476 0 0 1 14.477 14.477v5.238m-28.953-34.192c-7.996 0-14.477-6.481-14.477-14.477 0-7.995 6.481-14.476 14.477-14.476 7.995 0 14.476 6.481 14.476 14.476 0 7.996-6.481 14.477-14.476 14.477z" stroke-linecap="round" stroke-linejoin="round"/><path d="m6-6h122" stroke-linecap="round" transform="matrix(-1 0 0 1 319 353)"/><path d="m6-6h158" stroke-linecap="round" transform="matrix(-1 0 0 1 489 204)"/></g></g><rect height="960" rx="20" stroke="#323537" stroke-linecap="round" stroke-linejoin="round" stroke-width="12" width="700" x="6" y="6"/></svg>