<svg fill="none" height="972" width="712" xmlns="http://www.w3.org/2000/svg" xmlns:xlink="http://www.w3.org/1999/xlink"><clipPath id="a"><rect height="960" rx="20" width="700" x="6" y="6"/></clipPath><g clip-path="url(#a)"><rect fill="#f7f7f5" height="960" rx="20" width="700" x="6" y="6"/><path d="m-365-317.76h1073.2v1147.06h-1073.2z" fill="#efd074" transform="matrix(.97309851 -.23038943 .23038943 .97309851 63.389501 -92.640358)"/><path d="m330 343 24 24 24-24m108 2 24-24 24 24" stroke="#9d7d1e" stroke-linecap="round" stroke-width="12"/><path d="m400.594 888.259c-4.73.01-8.436-1.266-11.118-3.827-2.645-2.561-3.973-6.042-3.982-10.442l-.051-24.97 7.259-.015.053 25.19c.005 2.347.668 4.197 1.991 5.551 1.36 1.354 3.304 2.028 5.834 2.023 2.53-.006 4.454-.688 5.771-2.047 1.354-1.36 2.029-3.213 2.024-5.559l-.053-25.19 7.26-.015.052 24.969c.009 4.4-1.322 7.887-3.993 10.459-2.635 2.572-6.317 3.863-11.047 3.873zm33.653-.07c-3.557.007-6.473-.757-8.75-2.292-2.276-1.535-3.656-3.732-4.139-6.591l6.377-1.664c.371 1.906 1.143 3.225 2.318 3.956 1.212.73 2.606 1.094 4.183 1.091 1.613-.003 2.804-.281 3.573-.832.769-.589 1.152-1.305 1.15-2.148-.001-.843-.369-1.484-1.104-1.923-.734-.475-1.908-.857-3.522-1.147l-1.541-.272c-1.907-.363-3.65-.854-5.228-1.474-1.578-.657-2.845-1.553-3.8-2.687-.956-1.135-1.436-2.601-1.439-4.397-.006-2.714.98-4.787 2.957-6.222 1.977-1.47 4.579-2.209 7.805-2.216 3.044-.006 5.575.667 7.594 2.02 2.02 1.352 3.344 3.128 3.971 5.326l-6.43 1.994c-.297-1.393-.904-2.382-1.822-2.967-.881-.584-1.981-.875-3.301-.873-1.32.003-2.328.243-3.024.722-.696.441-1.043 1.065-1.041 1.872.002.88.37 1.539 1.104 1.977.734.402 1.725.712 2.972.929l1.541.272c2.054.362 3.906.854 5.558 1.474 1.688.583 3.009 1.442 3.965 2.576.992 1.098 1.49 2.601 1.494 4.507.006 2.86-1.034 5.081-3.121 6.662-2.05 1.544-4.817 2.32-8.3 2.327zm29.943-.062c-2.714.005-5.117-.558-7.209-1.69-2.056-1.169-3.672-2.798-4.85-4.885-1.141-2.124-1.715-4.617-1.721-7.477l-.001-.66c-.006-2.86.557-5.336 1.69-7.428 1.132-2.129 2.724-3.764 4.775-4.905 2.05-1.178 4.433-1.769 7.146-1.775 2.677-.005 5.006.595 6.989 1.801 1.982 1.169 3.525 2.816 4.63 4.94 1.104 2.088 1.659 4.525 1.665 7.312l.005 2.365-19.855.041c.077 1.87.777 3.39 2.099 4.56 1.323 1.171 2.937 1.754 4.844 1.75 1.943-.004 3.373-.428 4.287-1.273.915-.846 1.61-1.782 2.085-2.81l5.671 2.958c-.512.955-1.261 2.001-2.249 3.14-.951 1.102-2.232 2.058-3.844 2.868-1.611.773-3.664 1.163-6.157 1.168zm-6.692-17.531 12.76-.027c-.15-1.576-.794-2.84-1.933-3.791-1.102-.951-2.551-1.424-4.348-1.421-1.87.004-3.354.484-4.452 1.439-1.098.956-1.773 2.222-2.027 3.8zm26.003 16.721-.056-27.28 6.82-.014.006 3.08.99-.002c.401-1.101 1.059-1.909 1.975-2.424.952-.516 2.052-.775 3.298-.777l3.3-.007.013 6.16-3.41.007c-1.76.004-3.207.483-4.342 1.439-1.135.919-1.7 2.35-1.696 4.293l.032 15.51zm35.552-.074-.08-38.5 24.2-.05.013 6.6-16.94.035.02 9.295 15.62-.032.013 6.6-15.62.032.034 16.005zm29.599-.061-.079-38.5 6.93-.015.079 38.5zm27.591.713c-2.713.005-5.152-.54-7.318-1.635a12.372 12.372 0 0 1 -5.125-4.775c-1.251-2.087-1.88-4.597-1.886-7.531l-.001-.88c-.007-2.933.612-5.446 1.854-7.539a12.371 12.371 0 0 1 5.105-4.795c2.161-1.105 4.598-1.66 7.312-1.665 2.713-.006 5.152.539 7.318 1.634a12.372 12.372 0 0 1 5.125 4.775c1.251 2.087 1.879 4.598 1.885 7.531l.002.88c.006 2.933-.612 5.446-1.854 7.539a12.371 12.371 0 0 1 -5.105 4.795c-2.161 1.105-4.598 1.66-7.312 1.666zm-.012-6.16c2.126-.005 3.885-.687 5.275-2.046 1.391-1.397 2.083-3.378 2.078-5.945l-.001-.55c-.005-2.566-.706-4.527-2.102-5.88-1.36-1.391-3.121-2.084-5.285-2.079-2.126.004-3.885.704-5.275 2.101-1.391 1.359-2.083 3.322-2.078 5.889l.001.55c.005 2.567.706 4.545 2.102 5.936 1.396 1.353 3.158 2.028 5.285 2.024zm22.8 5.342-3.907-27.272 6.875-.014 2.467 22.6.99-.002 3.473-22.612 11.11-.023 3.567 22.597.99-.002 2.373-22.61 6.875-.014-3.793 27.288-11.495.024-3.567-22.598-.99.002-3.473 22.612z" fill="#323537"/><path d="m516.875 805v-3.552h4.8v-15.232h-4.8v-3.552h14.4v3.552h-4.8v15.232h4.8v3.552zm20.116-22.336h7.2c3.008 0 5.237.96 6.688 2.88 1.45 1.92 2.176 4.683 2.176 8.288s-.726 6.368-2.176 8.288c-1.451 1.92-3.68 2.88-6.688 2.88h-7.2zm6.88 18.56c1.429 0 2.474-.459 3.136-1.376.661-.917.992-2.251.992-4v-4.064c0-1.728-.331-3.051-.992-3.968-.662-.917-1.707-1.376-3.136-1.376h-2.144v14.784zm14.099 3.776v-22.336h14.272v3.936h-9.472v5.12h9.152v3.936h-9.152v5.408h9.472v3.936zm31.828 0-1.409-5.376h-6.112l-1.375 5.376h-4.864l6.047-22.336h6.784l6.048 22.336zm-4.32-17.696h-.257l-2.175 8.448h4.608zm22.867-.704v18.4h-4.8v-18.4h-6.432v-3.936h17.664v3.936zm11.028 18.4-.001-22.336h14.273v3.936h-9.472v5.12h9.152v3.936h-9.152v5.408h9.472v3.936z" fill="#e3b631"/><g stroke-width="12"><path d="m285 243h68.5v130.5m88 75h68.5v-130.5" stroke="#9d7d1e"/><rect fill="#f7f7f5" height="139.349" rx="16" stroke="#323537" stroke-linejoin="round" width="165" x="121" y="173"/><rect height="25" rx="10" stroke="#323537" stroke-linejoin="round" width="106.776" x="151" y="203"/><rect height="25" rx="10" stroke="#323537" stroke-linejoin="round" width="106.776" x="151" y="257"/><rect fill="#f7f7f5" height="139.349" rx="16" stroke="#323537" stroke-linejoin="round" width="179" x="261" y="375"/><rect fill="#f7f7f5" height="139.349" rx="16" stroke="#323537" stroke-linejoin="round" width="169" x="424" y="173"/><rect fill="#9d7d1e" height="46" rx="10" stroke="#9d7d1e" stroke-linejoin="round" width="119" x="291" y="407"/><path d="m292 484h100" stroke="#323537" stroke-linecap="round"/><path d="m459 270v-55c0-5.523 4.477-10 10-10h79.5c5.523 0 10 4.477 10 10v55c0 5.523-4.477 10-10 10h-79.5c-5.523 0-10-4.477-10-10z" fill="#f7f7f5" stroke="#9d7d1e"/><path d="m463 208 92.5 69m0-69-92.5 69" stroke="#9d7d1e"/></g></g><rect height="960" rx="20" stroke="#323537" stroke-linecap="round" stroke-linejoin="round" stroke-width="12" width="700" x="6" y="6"/></svg>