<svg fill="none" height="972" width="712" xmlns="http://www.w3.org/2000/svg" xmlns:xlink="http://www.w3.org/1999/xlink"><clipPath id="a"><rect height="960" rx="20" width="700" x="6" y="6"/></clipPath><g clip-path="url(#a)"><rect fill="#f7f7f5" height="960" rx="20" width="700" x="6" y="6"/><path d="m-280 845.239h1073.2v995.296h-1073.2z" fill="#c494d6" transform="matrix(.97309851 -.23038943 .23038943 .97309851 -202.266546 -41.770852)"/><path d="m104.696 121.384c5.568 0 8.704-2.976 8.704-7.264 0-3.84-2.208-5.888-6.784-6.624l-2.208-.352c-1.856-.288-2.656-.864-2.656-2.4 0-1.344 1.056-2.176 3.232-2.176 2.304 0 3.744.864 4.8 2.112l3.232-3.264c-1.824-2.016-4.384-3.136-7.744-3.136-5.248 0-8.384 2.784-8.384 6.784 0 3.744 2.144 6.048 6.848 6.656l2.208.288c2.08.288 2.592 1.184 2.592 2.4 0 1.632-1.152 2.688-3.52 2.688-2.176 0-4.096-.864-5.6-2.56l-3.2 3.232c1.92 2.112 4.576 3.616 8.48 3.616zm19.265 0c3.296 0 5.696-1.44 6.816-4.64l-3.68-1.6c-.48 1.344-1.248 2.496-3.136 2.496-1.92 0-2.912-1.344-2.912-3.456v-3.136c0-2.112.992-3.488 2.912-3.488 1.664 0 2.592 1.024 2.88 2.304l3.84-1.664c-.992-2.752-3.328-4.384-6.72-4.384-5.056 0-7.84 3.392-7.84 8.768s2.784 8.8 7.84 8.8zm16.599 0c3.072 0 5.536-1.056 7.04-2.784l-2.368-2.944c-1.056 1.088-2.144 2.016-4.128 2.016-2.528 0-3.712-1.408-3.712-3.616v-.256h10.784v-1.408c0-4.544-2.24-8.576-7.808-8.576-5.056 0-7.872 3.456-7.872 8.768 0 5.376 2.912 8.8 8.064 8.8zm-.096-14.08c1.888 0 2.816 1.376 2.816 3.424v.288h-5.888v-.256c0-2.08 1.184-3.456 3.072-3.456zm15.793 13.696v-10.88c0-1.664 1.504-2.464 3.04-2.464 1.728 0 2.336 1.056 2.336 3.2v10.144h4.736v-10.528c0-4.224-1.824-6.656-5.248-6.656-2.656 0-4.064 1.472-4.672 3.232h-.192v-2.848h-4.736v16.8zm29.366 0v-3.68h-1.568v-7.36c0-3.968-2.432-6.144-7.168-6.144-3.52 0-5.44 1.216-6.784 3.2l2.816 2.496c.736-1.024 1.728-1.984 3.616-1.984 1.984 0 2.784 1.024 2.784 2.656v1.056h-2.656c-4.448 0-7.2 1.696-7.2 5.248 0 2.912 1.856 4.896 5.216 4.896 2.56 0 4.416-1.152 4.928-3.328h.192c.288 1.792 1.504 2.944 3.2 2.944zm-9.184-2.912c-1.408 0-2.208-.576-2.208-1.792v-.48c0-1.216.96-1.888 2.784-1.888h2.304v1.984c0 1.536-1.312 2.176-2.88 2.176zm17.099 2.912v-9.824c0-1.952 1.344-2.56 4.096-2.56h1.184v-4.416h-.832c-2.624 0-3.904 1.792-4.288 3.648h-.16v-3.648h-4.736v16.8zm10.569-18.592c1.92 0 2.752-.992 2.752-2.336v-.704c0-1.344-.832-2.336-2.752-2.336s-2.752.992-2.752 2.336v.704c0 1.344.832 2.336 2.752 2.336zm-2.368 18.592h4.736v-16.8h-4.736zm15.973.384c4.928 0 7.872-3.392 7.872-8.8s-2.944-8.768-7.872-8.768-7.872 3.36-7.872 8.768 2.944 8.8 7.872 8.8zm0-3.744c-1.856 0-2.944-1.216-2.944-3.328v-3.424c0-2.112 1.088-3.328 2.944-3.328s2.944 1.216 2.944 3.328v3.424c0 2.112-1.088 3.328-2.944 3.328zm-111.544 45.36v-8.896l7.744-13.44h-3.456l-5.696 10.4h-.096l-5.728-10.4h-3.552l7.68 13.536v8.8zm15.449.384c4.512 0 7.552-3.392 7.552-8.672s-3.04-8.672-7.552-8.672-7.552 3.392-7.552 8.672 3.04 8.672 7.552 8.672zm0-2.56c-2.592 0-4.384-1.632-4.384-4.864v-2.496c0-3.232 1.792-4.864 4.384-4.864s4.384 1.632 4.384 4.864v2.496c0 3.232-1.792 4.864-4.384 4.864zm21.745 2.176h2.976v-16.576h-2.976v11.328c0 2.08-1.92 3.04-3.808 3.04-2.336 0-3.52-1.44-3.52-4.224v-10.144h-2.976v10.592c0 4.032 2.112 6.368 5.504 6.368 2.752 0 4.032-1.504 4.64-3.104h.16zm10.432-24c-1.472 0-2.112.832-2.112 2.016v.48c0 .96.448 1.664 1.408 1.856-.384 1.504-1.216 2.656-2.528 4h2.336c1.888-1.568 3.008-3.968 3.008-5.856v-.48c0-1.184-.64-2.016-2.112-2.016zm8.65 24v-10.88c0-1.632 1.6-2.72 4.352-2.72h1.472v-2.976h-.992c-2.656 0-4.128 1.536-4.672 3.168h-.16v-3.168h-2.976v16.576zm15.204.384c3.104 0 5.504-1.44 6.656-3.584l-1.92-1.632c-.896 1.696-2.4 2.688-4.48 2.688-2.976 0-4.672-1.984-4.672-4.736v-.672h11.68v-1.248c0-4.64-2.624-8.16-7.264-8.16-4.608 0-7.52 3.424-7.52 8.672s2.912 8.672 7.52 8.672zm0-14.944c2.496 0 4.096 1.856 4.096 4.608v.32h-8.512v-.224c0-2.72 1.824-4.704 4.416-4.704zm32.642 14.56v-2.528h-1.856v-8.736c0-3.584-2.368-5.696-6.496-5.696-3.072 0-5.024 1.44-6.016 3.232l1.792 1.632c.864-1.408 2.112-2.368 4.064-2.368 2.496 0 3.68 1.248 3.68 3.456v1.504h-3.136c-4.736 0-7.072 1.728-7.072 4.928 0 3.04 2.016 4.96 5.472 4.96 2.368 0 4.128-1.088 4.8-3.136h.16c.224 1.6 1.088 2.752 2.912 2.752zm-8.896-2.016c-1.856 0-3.04-.864-3.04-2.4v-.64c0-1.536 1.216-2.368 3.936-2.368h3.168v2.56c0 1.664-1.728 2.848-4.064 2.848zm20.011 8.416h2.976v-9.12h.128c.768 2.048 2.496 3.104 4.768 3.104 4.16 0 6.656-3.296 6.656-8.672s-2.496-8.672-6.656-8.672c-2.272 0-4 1.056-4.768 3.104h-.128v-2.72h-2.976zm7.008-8.608c-2.24 0-4.032-1.28-4.032-3.04v-6.08c0-1.76 1.792-3.04 4.032-3.04 2.656 0 4.352 1.888 4.352 4.672v2.816c0 2.784-1.696 4.672-4.352 4.672zm14.687 2.208v-10.88c0-1.632 1.6-2.72 4.352-2.72h1.472v-2.976h-.992c-2.656 0-4.128 1.536-4.672 3.168h-.16v-3.168h-2.976v16.576zm15.236.384c4.512 0 7.552-3.392 7.552-8.672s-3.04-8.672-7.552-8.672-7.552 3.392-7.552 8.672 3.04 8.672 7.552 8.672zm0-2.56c-2.592 0-4.384-1.632-4.384-4.864v-2.496c0-3.232 1.792-4.864 4.384-4.864s4.384 1.632 4.384 4.864v2.496c0 3.232-1.792 4.864-4.384 4.864zm22.097 2.176h2.976v-23.68h-2.976v9.824h-.128c-.768-2.048-2.496-3.104-4.768-3.104-4.16 0-6.656 3.296-6.656 8.672s2.496 8.672 6.656 8.672c2.272 0 4-1.056 4.768-3.104h.128zm-4.032-2.208c-2.656 0-4.352-1.888-4.352-4.672v-2.816c0-2.784 1.696-4.672 4.352-4.672 2.24 0 4.032 1.28 4.032 3.04v6.08c0 1.76-1.792 3.04-4.032 3.04zm22.398 2.208h2.976v-16.576h-2.976v11.328c0 2.08-1.92 3.04-3.808 3.04-2.336 0-3.52-1.44-3.52-4.224v-10.144h-2.976v10.592c0 4.032 2.112 6.368 5.504 6.368 2.752 0 4.032-1.504 4.64-3.104h.16zm14.503.384c3.168 0 5.344-1.536 6.4-4.032l-2.176-1.344c-.832 1.792-2.208 2.816-4.224 2.816-2.848 0-4.288-1.952-4.288-4.672v-2.88c0-2.72 1.44-4.672 4.288-4.672 1.92 0 3.264.992 3.808 2.624l2.464-1.216c-.96-2.368-3.008-3.968-6.272-3.968-4.736 0-7.456 3.36-7.456 8.672s2.72 8.672 7.456 8.672zm17.085-.384v-2.528h-3.296v-11.52h3.552v-2.528h-3.552v-4.576h-2.688v3.04c0 1.12-.352 1.536-1.472 1.536h-1.472v2.528h2.656v10.912c0 1.92 1.088 3.136 3.136 3.136zm22.296 0h2.976v-23.68h-2.976v9.824h-.128c-.768-2.048-2.496-3.104-4.768-3.104-4.16 0-6.656 3.296-6.656 8.672s2.496 8.672 6.656 8.672c2.272 0 4-1.056 4.768-3.104h.128zm-4.032-2.208c-2.656 0-4.352-1.888-4.352-4.672v-2.816c0-2.784 1.696-4.672 4.352-4.672 2.24 0 4.032 1.28 4.032 3.04v6.08c0 1.76-1.792 3.04-4.032 3.04zm18.59 2.592c3.104 0 5.504-1.44 6.656-3.584l-1.92-1.632c-.896 1.696-2.4 2.688-4.48 2.688-2.976 0-4.672-1.984-4.672-4.736v-.672h11.68v-1.248c0-4.64-2.624-8.16-7.264-8.16-4.608 0-7.52 3.424-7.52 8.672s2.912 8.672 7.52 8.672zm0-14.944c2.496 0 4.096 1.856 4.096 4.608v.32h-8.512v-.224c0-2.72 1.824-4.704 4.416-4.704zm16.409 14.944c3.904 0 6.336-2.016 6.336-5.248 0-2.56-1.504-4.16-5.152-4.704l-1.408-.224c-1.92-.288-2.88-.896-2.88-2.368 0-1.408 1.024-2.336 3.04-2.336 1.984 0 3.392.928 4.192 1.984l1.888-1.792c-1.408-1.664-3.168-2.656-5.984-2.656-3.488 0-6.016 1.728-6.016 4.992 0 3.072 2.208 4.384 5.376 4.832l1.408.224c2.016.288 2.656 1.152 2.656 2.368 0 1.536-1.152 2.464-3.264 2.464-2.016 0-3.552-.896-4.8-2.464l-2.016 1.728c1.536 1.952 3.552 3.2 6.624 3.2zm12.103-20.416c1.248 0 1.792-.672 1.792-1.632v-.448c0-.96-.544-1.632-1.792-1.632s-1.792.672-1.792 1.632v.448c0 .96.544 1.632 1.792 1.632zm-1.504 20.032h2.976v-16.576h-2.976zm22.459 1.696c0-2.784-1.76-4.48-5.856-4.48h-3.776c-1.504 0-2.432-.288-2.432-1.248 0-.928.928-1.472 1.888-1.76a8.475 8.475 0 0 0 1.856.192c4 0 6.432-2.304 6.432-5.664 0-1.824-.736-3.36-2.08-4.352v-.896h3.264v-2.496h-2.528c-1.408 0-2.016.896-2.016 2.272v.352a8.34 8.34 0 0 0 -3.072-.576c-3.968 0-6.4 2.336-6.4 5.696 0 2.272 1.12 4.096 3.072 5.024v.128c-1.632.384-2.88 1.216-2.88 2.88 0 1.184.576 2.016 1.632 2.432v.352c-1.696.416-2.72 1.408-2.72 3.2 0 2.56 2.112 4.032 7.392 4.032 5.6 0 8.224-1.664 8.224-5.088zm-2.784.288c0 1.696-1.536 2.528-4.352 2.528h-2.24c-2.592 0-3.584-1.088-3.584-2.464 0-.928.416-1.632 1.344-2.112h5.568c2.432 0 3.264.8 3.264 2.048zm-5.504-9.824c-2.112 0-3.424-.992-3.424-3.008v-.832c0-2.016 1.312-3.008 3.424-3.008s3.424.992 3.424 3.008v.832c0 2.016-1.312 3.008-3.424 3.008zm14.086 7.84v-11.36c0-2.016 1.888-3.008 3.84-3.008 2.336 0 3.488 1.44 3.488 4.224v10.144h2.976v-10.592c0-4.032-2.08-6.368-5.472-6.368-2.496 0-3.904 1.28-4.672 3.104h-.16v-2.72h-2.976v16.576zm21.704.384c3.104 0 5.504-1.44 6.656-3.584l-1.92-1.632c-.896 1.696-2.4 2.688-4.48 2.688-2.976 0-4.672-1.984-4.672-4.736v-.672h11.68v-1.248c0-4.64-2.624-8.16-7.264-8.16-4.608 0-7.52 3.424-7.52 8.672s2.912 8.672 7.52 8.672zm0-14.944c2.496 0 4.096 1.856 4.096 4.608v.32h-8.512v-.224c0-2.72 1.824-4.704 4.416-4.704zm14.296 14.56v-10.88c0-1.632 1.6-2.72 4.352-2.72h1.472v-2.976h-.992c-2.656 0-4.128 1.536-4.672 3.168h-.16v-3.168h-2.976v16.576zm17.483 0h2.976v-14.048h3.488v-2.528h-3.488v-4.576h3.488v-2.528h-2.592c-2.592 0-3.872 1.6-3.872 4.032v3.072h-2.656v2.528h2.656zm15.941.384c4.512 0 7.552-3.392 7.552-8.672s-3.04-8.672-7.552-8.672-7.552 3.392-7.552 8.672 3.04 8.672 7.552 8.672zm0-2.56c-2.592 0-4.384-1.632-4.384-4.864v-2.496c0-3.232 1.792-4.864 4.384-4.864s4.384 1.632 4.384 4.864v2.496c0 3.232-1.792 4.864-4.384 4.864zm14.576 2.176v-10.88c0-1.632 1.6-2.72 4.352-2.72h1.472v-2.976h-.992c-2.656 0-4.128 1.536-4.672 3.168h-.16v-3.168h-2.976v16.576zm30.347 0v-2.528h-1.856v-8.736c0-3.584-2.368-5.696-6.496-5.696-3.072 0-5.024 1.44-6.016 3.232l1.792 1.632c.864-1.408 2.112-2.368 4.064-2.368 2.496 0 3.68 1.248 3.68 3.456v1.504h-3.136c-4.736 0-7.072 1.728-7.072 4.928 0 3.04 2.016 4.96 5.472 4.96 2.368 0 4.128-1.088 4.8-3.136h.16c.224 1.6 1.088 2.752 2.912 2.752zm-8.896-2.016c-1.856 0-3.04-.864-3.04-2.4v-.64c0-1.536 1.216-2.368 3.936-2.368h3.168v2.56c0 1.664-1.728 2.848-4.064 2.848zm22.987 2.016v-11.36c0-2.016 1.888-3.008 3.84-3.008 2.336 0 3.488 1.44 3.488 4.224v10.144h2.976v-10.592c0-4.032-2.08-6.368-5.472-6.368-2.496 0-3.904 1.28-4.672 3.104h-.16v-2.72h-2.976v16.576zm21.704.384c3.104 0 5.504-1.44 6.656-3.584l-1.92-1.632c-.896 1.696-2.4 2.688-4.48 2.688-2.976 0-4.672-1.984-4.672-4.736v-.672h11.68v-1.248c0-4.64-2.624-8.16-7.264-8.16-4.608 0-7.52 3.424-7.52 8.672s2.912 8.672 7.52 8.672zm0-14.944c2.496 0 4.096 1.856 4.096 4.608v.32h-8.512v-.224c0-2.72 1.824-4.704 4.416-4.704zm13.916 14.56h3.456l2.24-7.776 1.376-4.864h.064l1.408 4.864 2.24 7.776h3.52l4.416-16.576h-2.784l-1.76 7.072-1.568 6.816h-.096l-1.92-6.816-2.112-7.072h-2.656l-2.048 7.072-1.888 6.816h-.064l-1.664-6.816-1.728-7.072h-2.88zm-485.964 42v-11.36c0-2.016 1.888-3.008 3.84-3.008 2.336 0 3.488 1.44 3.488 4.224v10.144h2.976v-10.592c0-4.032-2.08-6.368-5.472-6.368-2.496 0-3.904 1.28-4.672 3.104h-.16v-2.72h-2.976v16.576zm21.736.384c4.512 0 7.552-3.392 7.552-8.672s-3.04-8.672-7.552-8.672-7.552 3.392-7.552 8.672 3.04 8.672 7.552 8.672zm0-2.56c-2.592 0-4.384-1.632-4.384-4.864v-2.496c0-3.232 1.792-4.864 4.384-4.864s4.384 1.632 4.384 4.864v2.496c0 3.232-1.792 4.864-4.384 4.864zm18.769 2.176v-2.528h-3.296v-11.52h3.552v-2.528h-3.552v-4.576h-2.688v3.04c0 1.12-.352 1.536-1.472 1.536h-1.472v2.528h2.656v10.912c0 1.92 1.088 3.136 3.136 3.136zm10.449.384c3.104 0 5.504-1.44 6.656-3.584l-1.92-1.632c-.896 1.696-2.4 2.688-4.48 2.688-2.976 0-4.672-1.984-4.672-4.736v-.672h11.68v-1.248c0-4.64-2.624-8.16-7.264-8.16-4.608 0-7.52 3.424-7.52 8.672s2.912 8.672 7.52 8.672zm0-14.944c2.496 0 4.096 1.856 4.096 4.608v.32h-8.512v-.224c0-2.72 1.824-4.704 4.416-4.704zm19.697 6.368v-3.104h-8.576v3.104zm11.948 8.192v-2.528h-3.296v-11.52h3.552v-2.528h-3.552v-4.576h-2.688v3.04c0 1.12-.352 1.536-1.472 1.536h-1.472v2.528h2.656v10.912c0 1.92 1.088 3.136 3.136 3.136zm17.998 0v-2.528h-1.856v-8.736c0-3.584-2.368-5.696-6.496-5.696-3.072 0-5.024 1.44-6.016 3.232l1.792 1.632c.864-1.408 2.112-2.368 4.064-2.368 2.496 0 3.68 1.248 3.68 3.456v1.504h-3.136c-4.736 0-7.072 1.728-7.072 4.928 0 3.04 2.016 4.96 5.472 4.96 2.368 0 4.128-1.088 4.8-3.136h.16c.224 1.6 1.088 2.752 2.912 2.752zm-8.896-2.016c-1.856 0-3.04-.864-3.04-2.4v-.64c0-1.536 1.216-2.368 3.936-2.368h3.168v2.56c0 1.664-1.728 2.848-4.064 2.848zm12.448 2.016h2.976v-5.728l2.368-2.528 5.184 8.256h3.584l-6.656-10.176 5.888-6.4h-3.52l-4.32 4.736-2.368 2.912h-.16v-14.752h-2.976zm18.692-20.032c1.248 0 1.792-.672 1.792-1.632v-.448c0-.96-.544-1.632-1.792-1.632s-1.792.672-1.792 1.632v.448c0 .96.544 1.632 1.792 1.632zm-1.504 20.032h2.976v-16.576h-2.976zm11.194 0v-11.36c0-2.016 1.888-3.008 3.84-3.008 2.336 0 3.488 1.44 3.488 4.224v10.144h2.976v-10.592c0-4.032-2.08-6.368-5.472-6.368-2.496 0-3.904 1.28-4.672 3.104h-.16v-2.72h-2.976v16.576zm29.608 1.696c0-2.784-1.76-4.48-5.856-4.48h-3.776c-1.504 0-2.432-.288-2.432-1.248 0-.928.928-1.472 1.888-1.76a8.475 8.475 0 0 0 1.856.192c4 0 6.432-2.304 6.432-5.664 0-1.824-.736-3.36-2.08-4.352v-.896h3.264v-2.496h-2.528c-1.408 0-2.016.896-2.016 2.272v.352a8.34 8.34 0 0 0 -3.072-.576c-3.968 0-6.4 2.336-6.4 5.696 0 2.272 1.12 4.096 3.072 5.024v.128c-1.632.384-2.88 1.216-2.88 2.88 0 1.184.576 2.016 1.632 2.432v.352c-1.696.416-2.72 1.408-2.72 3.2 0 2.56 2.112 4.032 7.392 4.032 5.6 0 8.224-1.664 8.224-5.088zm-2.784.288c0 1.696-1.536 2.528-4.352 2.528h-2.24c-2.592 0-3.584-1.088-3.584-2.464 0-.928.416-1.632 1.344-2.112h5.568c2.432 0 3.264.8 3.264 2.048zm-5.504-9.824c-2.112 0-3.424-.992-3.424-3.008v-.832c0-2.016 1.312-3.008 3.424-3.008s3.424.992 3.424 3.008v.832c0 2.016-1.312 3.008-3.424 3.008zm32.433 7.84v-2.528h-1.856v-8.736c0-3.584-2.368-5.696-6.496-5.696-3.072 0-5.024 1.44-6.016 3.232l1.792 1.632c.864-1.408 2.112-2.368 4.064-2.368 2.496 0 3.68 1.248 3.68 3.456v1.504h-3.136c-4.736 0-7.072 1.728-7.072 4.928 0 3.04 2.016 4.96 5.472 4.96 2.368 0 4.128-1.088 4.8-3.136h.16c.224 1.6 1.088 2.752 2.912 2.752zm-8.896-2.016c-1.856 0-3.04-.864-3.04-2.4v-.64c0-1.536 1.216-2.368 3.936-2.368h3.168v2.56c0 1.664-1.728 2.848-4.064 2.848zm12.449 8.416h2.976v-9.12h.128c.768 2.048 2.496 3.104 4.768 3.104 4.16 0 6.656-3.296 6.656-8.672s-2.496-8.672-6.656-8.672c-2.272 0-4 1.056-4.768 3.104h-.128v-2.72h-2.976zm7.008-8.608c-2.24 0-4.032-1.28-4.032-3.04v-6.08c0-1.76 1.792-3.04 4.032-3.04 2.656 0 4.352 1.888 4.352 4.672v2.816c0 2.784-1.696 4.672-4.352 4.672zm11.71 8.608h2.976v-9.12h.128c.768 2.048 2.496 3.104 4.768 3.104 4.16 0 6.656-3.296 6.656-8.672s-2.496-8.672-6.656-8.672c-2.272 0-4 1.056-4.768 3.104h-.128v-2.72h-2.976zm7.008-8.608c-2.24 0-4.032-1.28-4.032-3.04v-6.08c0-1.76 1.792-3.04 4.032-3.04 2.656 0 4.352 1.888 4.352 4.672v2.816c0 2.784-1.696 4.672-4.352 4.672zm12.941 2.592c1.472 0 2.112-.832 2.112-1.984v-.48c0-1.152-.64-1.984-2.112-1.984s-2.112.832-2.112 1.984v.48c0 1.152.64 1.984 2.112 1.984zm23.189-.384v-8.896l7.744-13.44h-3.456l-5.696 10.4h-.096l-5.728-10.4h-3.552l7.68 13.536v8.8zm15.449.384c4.512 0 7.552-3.392 7.552-8.672s-3.04-8.672-7.552-8.672-7.552 3.392-7.552 8.672 3.04 8.672 7.552 8.672zm0-2.56c-2.592 0-4.384-1.632-4.384-4.864v-2.496c0-3.232 1.792-4.864 4.384-4.864s4.384 1.632 4.384 4.864v2.496c0 3.232-1.792 4.864-4.384 4.864zm21.745 2.176h2.976v-16.576h-2.976v11.328c0 2.08-1.92 3.04-3.808 3.04-2.336 0-3.52-1.44-3.52-4.224v-10.144h-2.976v10.592c0 4.032 2.112 6.368 5.504 6.368 2.752 0 4.032-1.504 4.64-3.104h.16zm10.432-24c-1.472 0-2.112.832-2.112 2.016v.48c0 .96.448 1.664 1.408 1.856-.384 1.504-1.216 2.656-2.528 4h2.336c1.888-1.568 3.008-3.968 3.008-5.856v-.48c0-1.184-.64-2.016-2.112-2.016zm8.65 24v-10.88c0-1.632 1.6-2.72 4.352-2.72h1.472v-2.976h-.992c-2.656 0-4.128 1.536-4.672 3.168h-.16v-3.168h-2.976v16.576zm15.204.384c3.104 0 5.504-1.44 6.656-3.584l-1.92-1.632c-.896 1.696-2.4 2.688-4.48 2.688-2.976 0-4.672-1.984-4.672-4.736v-.672h11.68v-1.248c0-4.64-2.624-8.16-7.264-8.16-4.608 0-7.52 3.424-7.52 8.672s2.912 8.672 7.52 8.672zm0-14.944c2.496 0 4.096 1.856 4.096 4.608v.32h-8.512v-.224c0-2.72 1.824-4.704 4.416-4.704zm20.386-5.472c1.248 0 1.792-.672 1.792-1.632v-.448c0-.96-.544-1.632-1.792-1.632s-1.792.672-1.792 1.632v.448c0 .96.544 1.632 1.792 1.632zm-1.504 20.032h2.976v-16.576h-2.976zm11.195 0v-11.36c0-2.016 1.888-3.008 3.84-3.008 2.336 0 3.488 1.44 3.488 4.224v10.144h2.976v-10.592c0-4.032-2.08-6.368-5.472-6.368-2.496 0-3.904 1.28-4.672 3.104h-.16v-2.72h-2.976v16.576zm30.13 0v-2.528h-3.296v-11.52h3.552v-2.528h-3.552v-4.576h-2.688v3.04c0 1.12-.352 1.536-1.472 1.536h-1.472v2.528h2.656v10.912c0 1.92 1.088 3.136 3.136 3.136zm4.238 0h2.976v-11.36c0-2.016 1.888-3.008 3.84-3.008 2.336 0 3.488 1.44 3.488 4.224v10.144h2.976v-10.592c0-4.032-2.08-6.368-5.472-6.368-2.496 0-3.904 1.28-4.672 3.104h-.16v-9.824h-2.976zm24.68.384c3.104 0 5.504-1.44 6.656-3.584l-1.92-1.632c-.896 1.696-2.4 2.688-4.48 2.688-2.976 0-4.672-1.984-4.672-4.736v-.672h11.68v-1.248c0-4.64-2.624-8.16-7.264-8.16-4.608 0-7.52 3.424-7.52 8.672s2.912 8.672 7.52 8.672zm0-14.944c2.496 0 4.096 1.856 4.096 4.608v.32h-8.512v-.224c0-2.72 1.824-4.704 4.416-4.704zm-415.274 56.56h2.976v-2.72h.128c.768 2.048 2.496 3.104 4.768 3.104 4.16 0 6.656-3.296 6.656-8.672s-2.496-8.672-6.656-8.672c-2.272 0-4 1.056-4.768 3.104h-.128v-9.824h-2.976zm7.008-2.208c-2.24 0-4.032-1.28-4.032-3.04v-6.08c0-1.76 1.792-3.04 4.032-3.04 2.656 0 4.352 1.888 4.352 4.672v2.816c0 2.784-1.696 4.672-4.352 4.672zm18.047 2.592c3.104 0 5.504-1.44 6.656-3.584l-1.92-1.632c-.896 1.696-2.4 2.688-4.48 2.688-2.976 0-4.672-1.984-4.672-4.736v-.672h11.68v-1.248c0-4.64-2.624-8.16-7.264-8.16-4.608 0-7.52 3.424-7.52 8.672s2.912 8.672 7.52 8.672zm0-14.944c2.496 0 4.096 1.856 4.096 4.608v.32h-8.512v-.224c0-2.72 1.824-4.704 4.416-4.704zm25.56 16.256c0-2.784-1.76-4.48-5.856-4.48h-3.776c-1.504 0-2.432-.288-2.432-1.248 0-.928.928-1.472 1.888-1.76a8.475 8.475 0 0 0 1.856.192c4 0 6.432-2.304 6.432-5.664 0-1.824-.736-3.36-2.08-4.352v-.896h3.264v-2.496h-2.528c-1.408 0-2.016.896-2.016 2.272v.352a8.34 8.34 0 0 0 -3.072-.576c-3.968 0-6.4 2.336-6.4 5.696 0 2.272 1.12 4.096 3.072 5.024v.128c-1.632.384-2.88 1.216-2.88 2.88 0 1.184.576 2.016 1.632 2.432v.352c-1.696.416-2.72 1.408-2.72 3.2 0 2.56 2.112 4.032 7.392 4.032 5.6 0 8.224-1.664 8.224-5.088zm-2.784.288c0 1.696-1.536 2.528-4.352 2.528h-2.24c-2.592 0-3.584-1.088-3.584-2.464 0-.928.416-1.632 1.344-2.112h5.568c2.432 0 3.264.8 3.264 2.048zm-5.504-9.824c-2.112 0-3.424-.992-3.424-3.008v-.832c0-2.016 1.312-3.008 3.424-3.008s3.424.992 3.424 3.008v.832c0 2.016-1.312 3.008-3.424 3.008zm12.615-12.192c1.248 0 1.792-.672 1.792-1.632v-.448c0-.96-.544-1.632-1.792-1.632s-1.792.672-1.792 1.632v.448c0 .96.544 1.632 1.792 1.632zm-1.504 20.032h2.976v-16.576h-2.976zm11.194 0v-11.36c0-2.016 1.888-3.008 3.84-3.008 2.336 0 3.488 1.44 3.488 4.224v10.144h2.976v-10.592c0-4.032-2.08-6.368-5.472-6.368-2.496 0-3.904 1.28-4.672 3.104h-.16v-2.72h-2.976v16.576zm18.344 0v-11.36c0-2.016 1.888-3.008 3.84-3.008 2.336 0 3.488 1.44 3.488 4.224v10.144h2.976v-10.592c0-4.032-2.08-6.368-5.472-6.368-2.496 0-3.904 1.28-4.672 3.104h-.16v-2.72h-2.976v16.576zm16.872-20.032c1.248 0 1.792-.672 1.792-1.632v-.448c0-.96-.544-1.632-1.792-1.632s-1.792.672-1.792 1.632v.448c0 .96.544 1.632 1.792 1.632zm-1.504 20.032h2.976v-16.576h-2.976zm11.195 0v-11.36c0-2.016 1.888-3.008 3.84-3.008 2.336 0 3.488 1.44 3.488 4.224v10.144h2.976v-10.592c0-4.032-2.08-6.368-5.472-6.368-2.496 0-3.904 1.28-4.672 3.104h-.16v-2.72h-2.976v16.576zm29.607 1.696c0-2.784-1.76-4.48-5.856-4.48h-3.776c-1.504 0-2.432-.288-2.432-1.248 0-.928.928-1.472 1.888-1.76a8.475 8.475 0 0 0 1.856.192c4 0 6.432-2.304 6.432-5.664 0-1.824-.736-3.36-2.08-4.352v-.896h3.264v-2.496h-2.528c-1.408 0-2.016.896-2.016 2.272v.352a8.34 8.34 0 0 0 -3.072-.576c-3.968 0-6.4 2.336-6.4 5.696 0 2.272 1.12 4.096 3.072 5.024v.128c-1.632.384-2.88 1.216-2.88 2.88 0 1.184.576 2.016 1.632 2.432v.352c-1.696.416-2.72 1.408-2.72 3.2 0 2.56 2.112 4.032 7.392 4.032 5.6 0 8.224-1.664 8.224-5.088zm-2.784.288c0 1.696-1.536 2.528-4.352 2.528h-2.24c-2.592 0-3.584-1.088-3.584-2.464 0-.928.416-1.632 1.344-2.112h5.568c2.432 0 3.264.8 3.264 2.048zm-5.504-9.824c-2.112 0-3.424-.992-3.424-3.008v-.832c0-2.016 1.312-3.008 3.424-3.008s3.424.992 3.424 3.008v.832c0 2.016-1.312 3.008-3.424 3.008zm23.761 8.224c3.904 0 6.336-2.016 6.336-5.248 0-2.56-1.504-4.16-5.152-4.704l-1.408-.224c-1.92-.288-2.88-.896-2.88-2.368 0-1.408 1.024-2.336 3.04-2.336 1.984 0 3.392.928 4.192 1.984l1.888-1.792c-1.408-1.664-3.168-2.656-5.984-2.656-3.488 0-6.016 1.728-6.016 4.992 0 3.072 2.208 4.384 5.376 4.832l1.408.224c2.016.288 2.656 1.152 2.656 2.368 0 1.536-1.152 2.464-3.264 2.464-2.016 0-3.552-.896-4.8-2.464l-2.016 1.728c1.536 1.952 3.552 3.2 6.624 3.2zm17.581-.384v-2.528h-3.296v-11.52h3.552v-2.528h-3.552v-4.576h-2.688v3.04c0 1.12-.352 1.536-1.472 1.536h-1.472v2.528h2.656v10.912c0 1.92 1.088 3.136 3.136 3.136zm17.998 0v-2.528h-1.856v-8.736c0-3.584-2.368-5.696-6.496-5.696-3.072 0-5.024 1.44-6.016 3.232l1.792 1.632c.864-1.408 2.112-2.368 4.064-2.368 2.496 0 3.68 1.248 3.68 3.456v1.504h-3.136c-4.736 0-7.072 1.728-7.072 4.928 0 3.04 2.016 4.96 5.472 4.96 2.368 0 4.128-1.088 4.8-3.136h.16c.224 1.6 1.088 2.752 2.912 2.752zm-8.896-2.016c-1.856 0-3.04-.864-3.04-2.4v-.64c0-1.536 1.216-2.368 3.936-2.368h3.168v2.56c0 1.664-1.728 2.848-4.064 2.848zm26.688 3.712c0-2.784-1.76-4.48-5.856-4.48h-3.776c-1.504 0-2.432-.288-2.432-1.248 0-.928.928-1.472 1.888-1.76a8.475 8.475 0 0 0 1.856.192c4 0 6.432-2.304 6.432-5.664 0-1.824-.736-3.36-2.08-4.352v-.896h3.264v-2.496h-2.528c-1.408 0-2.016.896-2.016 2.272v.352a8.34 8.34 0 0 0 -3.072-.576c-3.968 0-6.4 2.336-6.4 5.696 0 2.272 1.12 4.096 3.072 5.024v.128c-1.632.384-2.88 1.216-2.88 2.88 0 1.184.576 2.016 1.632 2.432v.352c-1.696.416-2.72 1.408-2.72 3.2 0 2.56 2.112 4.032 7.392 4.032 5.6 0 8.224-1.664 8.224-5.088zm-2.784.288c0 1.696-1.536 2.528-4.352 2.528h-2.24c-2.592 0-3.584-1.088-3.584-2.464 0-.928.416-1.632 1.344-2.112h5.568c2.432 0 3.264.8 3.264 2.048zm-5.504-9.824c-2.112 0-3.424-.992-3.424-3.008v-.832c0-2.016 1.312-3.008 3.424-3.008s3.424.992 3.424 3.008v.832c0 2.016-1.312 3.008-3.424 3.008zm17.259 8.224c3.104 0 5.504-1.44 6.656-3.584l-1.92-1.632c-.896 1.696-2.4 2.688-4.48 2.688-2.976 0-4.672-1.984-4.672-4.736v-.672h11.68v-1.248c0-4.64-2.624-8.16-7.264-8.16-4.608 0-7.52 3.424-7.52 8.672s2.912 8.672 7.52 8.672zm0-14.944c2.496 0 4.096 1.856 4.096 4.608v.32h-8.512v-.224c0-2.72 1.824-4.704 4.416-4.704zm16.408 14.944c3.904 0 6.336-2.016 6.336-5.248 0-2.56-1.504-4.16-5.152-4.704l-1.408-.224c-1.92-.288-2.88-.896-2.88-2.368 0-1.408 1.024-2.336 3.04-2.336 1.984 0 3.392.928 4.192 1.984l1.888-1.792c-1.408-1.664-3.168-2.656-5.984-2.656-3.488 0-6.016 1.728-6.016 4.992 0 3.072 2.208 4.384 5.376 4.832l1.408.224c2.016.288 2.656 1.152 2.656 2.368 0 1.536-1.152 2.464-3.264 2.464-2.016 0-3.552-.896-4.8-2.464l-2.016 1.728c1.536 1.952 3.552 3.2 6.624 3.2zm24.53 0c4.512 0 7.552-3.392 7.552-8.672s-3.04-8.672-7.552-8.672-7.552 3.392-7.552 8.672 3.04 8.672 7.552 8.672zm0-2.56c-2.592 0-4.384-1.632-4.384-4.864v-2.496c0-3.232 1.792-4.864 4.384-4.864s4.384 1.632 4.384 4.864v2.496c0 3.232-1.792 4.864-4.384 4.864zm12.31 2.176h2.976v-14.048h3.488v-2.528h-3.488v-4.576h3.488v-2.528h-2.592c-2.592 0-3.872 1.6-3.872 4.032v3.072h-2.656v2.528h2.656zm27.756 0h2.976v-23.68h-2.976v9.824h-.128c-.768-2.048-2.496-3.104-4.768-3.104-4.16 0-6.656 3.296-6.656 8.672s2.496 8.672 6.656 8.672c2.272 0 4-1.056 4.768-3.104h.128zm-4.032-2.208c-2.656 0-4.352-1.888-4.352-4.672v-2.816c0-2.784 1.696-4.672 4.352-4.672 2.24 0 4.032 1.28 4.032 3.04v6.08c0 1.76-1.792 3.04-4.032 3.04zm18.591 2.592c3.104 0 5.504-1.44 6.656-3.584l-1.92-1.632c-.896 1.696-2.4 2.688-4.48 2.688-2.976 0-4.672-1.984-4.672-4.736v-.672h11.68v-1.248c0-4.64-2.624-8.16-7.264-8.16-4.608 0-7.52 3.424-7.52 8.672s2.912 8.672 7.52 8.672zm0-14.944c2.496 0 4.096 1.856 4.096 4.608v.32h-8.512v-.224c0-2.72 1.824-4.704 4.416-4.704zm16.408 14.944c3.904 0 6.336-2.016 6.336-5.248 0-2.56-1.504-4.16-5.152-4.704l-1.408-.224c-1.92-.288-2.88-.896-2.88-2.368 0-1.408 1.024-2.336 3.04-2.336 1.984 0 3.392.928 4.192 1.984l1.888-1.792c-1.408-1.664-3.168-2.656-5.984-2.656-3.488 0-6.016 1.728-6.016 4.992 0 3.072 2.208 4.384 5.376 4.832l1.408.224c2.016.288 2.656 1.152 2.656 2.368 0 1.536-1.152 2.464-3.264 2.464-2.016 0-3.552-.896-4.8-2.464l-2.016 1.728c1.536 1.952 3.552 3.2 6.624 3.2zm12.103-20.416c1.248 0 1.792-.672 1.792-1.632v-.448c0-.96-.544-1.632-1.792-1.632s-1.792.672-1.792 1.632v.448c0 .96.544 1.632 1.792 1.632zm-1.504 20.032h2.976v-16.576h-2.976zm22.459 1.696c0-2.784-1.76-4.48-5.856-4.48h-3.776c-1.504 0-2.432-.288-2.432-1.248 0-.928.928-1.472 1.888-1.76a8.475 8.475 0 0 0 1.856.192c4 0 6.432-2.304 6.432-5.664 0-1.824-.736-3.36-2.08-4.352v-.896h3.264v-2.496h-2.528c-1.408 0-2.016.896-2.016 2.272v.352a8.34 8.34 0 0 0 -3.072-.576c-3.968 0-6.4 2.336-6.4 5.696 0 2.272 1.12 4.096 3.072 5.024v.128c-1.632.384-2.88 1.216-2.88 2.88 0 1.184.576 2.016 1.632 2.432v.352c-1.696.416-2.72 1.408-2.72 3.2 0 2.56 2.112 4.032 7.392 4.032 5.6 0 8.224-1.664 8.224-5.088zm-2.784.288c0 1.696-1.536 2.528-4.352 2.528h-2.24c-2.592 0-3.584-1.088-3.584-2.464 0-.928.416-1.632 1.344-2.112h5.568c2.432 0 3.264.8 3.264 2.048zm-5.504-9.824c-2.112 0-3.424-.992-3.424-3.008v-.832c0-2.016 1.312-3.008 3.424-3.008s3.424.992 3.424 3.008v.832c0 2.016-1.312 3.008-3.424 3.008zm14.087 7.84v-11.36c0-2.016 1.888-3.008 3.84-3.008 2.336 0 3.488 1.44 3.488 4.224v10.144h2.976v-10.592c0-4.032-2.08-6.368-5.472-6.368-2.496 0-3.904 1.28-4.672 3.104h-.16v-2.72h-2.976v16.576zm16.871-20.032c1.248 0 1.792-.672 1.792-1.632v-.448c0-.96-.544-1.632-1.792-1.632s-1.792.672-1.792 1.632v.448c0 .96.544 1.632 1.792 1.632zm-1.504 20.032h2.976v-16.576h-2.976zm11.195 0v-11.36c0-2.016 1.888-3.008 3.84-3.008 2.336 0 3.488 1.44 3.488 4.224v10.144h2.976v-10.592c0-4.032-2.08-6.368-5.472-6.368-2.496 0-3.904 1.28-4.672 3.104h-.16v-2.72h-2.976v16.576zm29.608 1.696c0-2.784-1.76-4.48-5.856-4.48h-3.776c-1.504 0-2.432-.288-2.432-1.248 0-.928.928-1.472 1.888-1.76a8.475 8.475 0 0 0 1.856.192c4 0 6.432-2.304 6.432-5.664 0-1.824-.736-3.36-2.08-4.352v-.896h3.264v-2.496h-2.528c-1.408 0-2.016.896-2.016 2.272v.352a8.34 8.34 0 0 0 -3.072-.576c-3.968 0-6.4 2.336-6.4 5.696 0 2.272 1.12 4.096 3.072 5.024v.128c-1.632.384-2.88 1.216-2.88 2.88 0 1.184.576 2.016 1.632 2.432v.352c-1.696.416-2.72 1.408-2.72 3.2 0 2.56 2.112 4.032 7.392 4.032 5.6 0 8.224-1.664 8.224-5.088zm-2.784.288c0 1.696-1.536 2.528-4.352 2.528h-2.24c-2.592 0-3.584-1.088-3.584-2.464 0-.928.416-1.632 1.344-2.112h5.568c2.432 0 3.264.8 3.264 2.048zm-5.504-9.824c-2.112 0-3.424-.992-3.424-3.008v-.832c0-2.016 1.312-3.008 3.424-3.008s3.424.992 3.424 3.008v.832c0 2.016-1.312 3.008-3.424 3.008zm25.873 7.84v-2.528h-3.296v-11.52h3.552v-2.528h-3.552v-4.576h-2.688v3.04c0 1.12-.352 1.536-1.472 1.536h-1.472v2.528h2.656v10.912c0 1.92 1.088 3.136 3.136 3.136zm4.237 0h2.976v-11.36c0-2.016 1.888-3.008 3.84-3.008 2.336 0 3.488 1.44 3.488 4.224v10.144h2.976v-10.592c0-4.032-2.08-6.368-5.472-6.368-2.496 0-3.904 1.28-4.672 3.104h-.16v-9.824h-2.976zm24.68.384c3.104 0 5.504-1.44 6.656-3.584l-1.92-1.632c-.896 1.696-2.4 2.688-4.48 2.688-2.976 0-4.672-1.984-4.672-4.736v-.672h11.68v-1.248c0-4.64-2.624-8.16-7.264-8.16-4.608 0-7.52 3.424-7.52 8.672s2.912 8.672 7.52 8.672zm0-14.944c2.496 0 4.096 1.856 4.096 4.608v.32h-8.512v-.224c0-2.72 1.824-4.704 4.416-4.704zm-456.701 56.56v-2.528h-1.856v-8.736c0-3.584-2.368-5.696-6.496-5.696-3.072 0-5.024 1.44-6.016 3.232l1.792 1.632c.864-1.408 2.112-2.368 4.064-2.368 2.496 0 3.68 1.248 3.68 3.456v1.504h-3.136c-4.736 0-7.072 1.728-7.072 4.928 0 3.04 2.016 4.96 5.472 4.96 2.368 0 4.128-1.088 4.8-3.136h.16c.224 1.6 1.088 2.752 2.912 2.752zm-8.896-2.016c-1.856 0-3.04-.864-3.04-2.4v-.64c0-1.536 1.216-2.368 3.936-2.368h3.168v2.56c0 1.664-1.728 2.848-4.064 2.848zm12.449 8.416h2.976v-9.12h.128c.768 2.048 2.496 3.104 4.768 3.104 4.16 0 6.656-3.296 6.656-8.672s-2.496-8.672-6.656-8.672c-2.272 0-4 1.056-4.768 3.104h-.128v-2.72h-2.976zm7.008-8.608c-2.24 0-4.032-1.28-4.032-3.04v-6.08c0-1.76 1.792-3.04 4.032-3.04 2.656 0 4.352 1.888 4.352 4.672v2.816c0 2.784-1.696 4.672-4.352 4.672zm11.71 8.608h2.976v-9.12h.128c.768 2.048 2.496 3.104 4.768 3.104 4.16 0 6.656-3.296 6.656-8.672s-2.496-8.672-6.656-8.672c-2.272 0-4 1.056-4.768 3.104h-.128v-2.72h-2.976zm7.008-8.608c-2.24 0-4.032-1.28-4.032-3.04v-6.08c0-1.76 1.792-3.04 4.032-3.04 2.656 0 4.352 1.888 4.352 4.672v2.816c0 2.784-1.696 4.672-4.352 4.672zm33.034 2.208v-2.528h-1.856v-8.736c0-3.584-2.368-5.696-6.496-5.696-3.072 0-5.024 1.44-6.016 3.232l1.792 1.632c.864-1.408 2.112-2.368 4.064-2.368 2.496 0 3.68 1.248 3.68 3.456v1.504h-3.136c-4.736 0-7.072 1.728-7.072 4.928 0 3.04 2.016 4.96 5.472 4.96 2.368 0 4.128-1.088 4.8-3.136h.16c.224 1.6 1.088 2.752 2.912 2.752zm-8.896-2.016c-1.856 0-3.04-.864-3.04-2.4v-.64c0-1.536 1.216-2.368 3.936-2.368h3.168v2.56c0 1.664-1.728 2.848-4.064 2.848zm15.424 2.016v-11.36c0-2.016 1.888-3.008 3.84-3.008 2.336 0 3.488 1.44 3.488 4.224v10.144h2.976v-10.592c0-4.032-2.08-6.368-5.472-6.368-2.496 0-3.904 1.28-4.672 3.104h-.16v-2.72h-2.976v16.576zm25.864 0h2.976v-23.68h-2.976v9.824h-.128c-.768-2.048-2.496-3.104-4.768-3.104-4.16 0-6.656 3.296-6.656 8.672s2.496 8.672 6.656 8.672c2.272 0 4-1.056 4.768-3.104h.128zm-4.032-2.208c-2.656 0-4.352-1.888-4.352-4.672v-2.816c0-2.784 1.696-4.672 4.352-4.672 2.24 0 4.032 1.28 4.032 3.04v6.08c0 1.76-1.792 3.04-4.032 3.04zm22.793 2.208v-11.36c0-2.016 1.888-3.008 3.84-3.008 2.336 0 3.488 1.44 3.488 4.224v10.144h2.976v-10.592c0-4.032-2.08-6.368-5.472-6.368-2.496 0-3.904 1.28-4.672 3.104h-.16v-2.72h-2.976v16.576zm21.704.384c3.104 0 5.504-1.44 6.656-3.584l-1.92-1.632c-.896 1.696-2.4 2.688-4.48 2.688-2.976 0-4.672-1.984-4.672-4.736v-.672h11.68v-1.248c0-4.64-2.624-8.16-7.264-8.16-4.608 0-7.52 3.424-7.52 8.672s2.912 8.672 7.52 8.672zm0-14.944c2.496 0 4.096 1.856 4.096 4.608v.32h-8.512v-.224c0-2.72 1.824-4.704 4.416-4.704zm17.656 14.944c3.104 0 5.504-1.44 6.656-3.584l-1.92-1.632c-.896 1.696-2.4 2.688-4.48 2.688-2.976 0-4.672-1.984-4.672-4.736v-.672h11.68v-1.248c0-4.64-2.624-8.16-7.264-8.16-4.608 0-7.52 3.424-7.52 8.672s2.912 8.672 7.52 8.672zm0-14.944c2.496 0 4.096 1.856 4.096 4.608v.32h-8.512v-.224c0-2.72 1.824-4.704 4.416-4.704zm21.816 14.56h2.976v-23.68h-2.976v9.824h-.128c-.768-2.048-2.496-3.104-4.768-3.104-4.16 0-6.656 3.296-6.656 8.672s2.496 8.672 6.656 8.672c2.272 0 4-1.056 4.768-3.104h.128zm-4.032-2.208c-2.656 0-4.352-1.888-4.352-4.672v-2.816c0-2.784 1.696-4.672 4.352-4.672 2.24 0 4.032 1.28 4.032 3.04v6.08c0 1.76-1.792 3.04-4.032 3.04zm27.018 2.208v-2.528h-3.296v-11.52h3.552v-2.528h-3.552v-4.576h-2.688v3.04c0 1.12-.352 1.536-1.472 1.536h-1.472v2.528h2.656v10.912c0 1.92 1.088 3.136 3.136 3.136zm10.48.384c4.512 0 7.552-3.392 7.552-8.672s-3.04-8.672-7.552-8.672-7.552 3.392-7.552 8.672 3.04 8.672 7.552 8.672zm0-2.56c-2.592 0-4.384-1.632-4.384-4.864v-2.496c0-3.232 1.792-4.864 4.384-4.864s4.384 1.632 4.384 4.864v2.496c0 3.232-1.792 4.864-4.384 4.864zm33.403 3.872c0-2.784-1.76-4.48-5.856-4.48h-3.776c-1.504 0-2.432-.288-2.432-1.248 0-.928.928-1.472 1.888-1.76a8.475 8.475 0 0 0 1.856.192c4 0 6.432-2.304 6.432-5.664 0-1.824-.736-3.36-2.08-4.352v-.896h3.264v-2.496h-2.528c-1.408 0-2.016.896-2.016 2.272v.352a8.34 8.34 0 0 0 -3.072-.576c-3.968 0-6.4 2.336-6.4 5.696 0 2.272 1.12 4.096 3.072 5.024v.128c-1.632.384-2.88 1.216-2.88 2.88 0 1.184.576 2.016 1.632 2.432v.352c-1.696.416-2.72 1.408-2.72 3.2 0 2.56 2.112 4.032 7.392 4.032 5.6 0 8.224-1.664 8.224-5.088zm-2.784.288c0 1.696-1.536 2.528-4.352 2.528h-2.24c-2.592 0-3.584-1.088-3.584-2.464 0-.928.416-1.632 1.344-2.112h5.568c2.432 0 3.264.8 3.264 2.048zm-5.504-9.824c-2.112 0-3.424-.992-3.424-3.008v-.832c0-2.016 1.312-3.008 3.424-3.008s3.424.992 3.424 3.008v.832c0 2.016-1.312 3.008-3.424 3.008zm17.259 8.224c3.104 0 5.504-1.44 6.656-3.584l-1.92-1.632c-.896 1.696-2.4 2.688-4.48 2.688-2.976 0-4.672-1.984-4.672-4.736v-.672h11.68v-1.248c0-4.64-2.624-8.16-7.264-8.16-4.608 0-7.52 3.424-7.52 8.672s2.912 8.672 7.52 8.672zm0-14.944c2.496 0 4.096 1.856 4.096 4.608v.32h-8.512v-.224c0-2.72 1.824-4.704 4.416-4.704zm18.521 14.56v-2.528h-3.296v-11.52h3.552v-2.528h-3.552v-4.576h-2.688v3.04c0 1.12-.352 1.536-1.472 1.536h-1.472v2.528h2.656v10.912c0 1.92 1.088 3.136 3.136 3.136zm19 0v-2.528h-3.296v-11.52h3.552v-2.528h-3.552v-4.576h-2.688v3.04c0 1.12-.352 1.536-1.472 1.536h-1.472v2.528h2.656v10.912c0 1.92 1.088 3.136 3.136 3.136zm10.48.384c4.512 0 7.552-3.392 7.552-8.672s-3.04-8.672-7.552-8.672-7.552 3.392-7.552 8.672 3.04 8.672 7.552 8.672zm0-2.56c-2.592 0-4.384-1.632-4.384-4.864v-2.496c0-3.232 1.792-4.864 4.384-4.864s4.384 1.632 4.384 4.864v2.496c0 3.232-1.792 4.864-4.384 4.864zm19.163 2.176h2.976v-5.728l2.368-2.528 5.184 8.256h3.584l-6.656-10.176 5.888-6.4h-3.52l-4.32 4.736-2.368 2.912h-.16v-14.752h-2.976zm20.164 0v-11.36c0-2.016 1.888-3.008 3.84-3.008 2.336 0 3.488 1.44 3.488 4.224v10.144h2.976v-10.592c0-4.032-2.08-6.368-5.472-6.368-2.496 0-3.904 1.28-4.672 3.104h-.16v-2.72h-2.976v16.576zm21.736.384c4.512 0 7.552-3.392 7.552-8.672s-3.04-8.672-7.552-8.672-7.552 3.392-7.552 8.672 3.04 8.672 7.552 8.672zm0-2.56c-2.592 0-4.384-1.632-4.384-4.864v-2.496c0-3.232 1.792-4.864 4.384-4.864s4.384 1.632 4.384 4.864v2.496c0 3.232-1.792 4.864-4.384 4.864zm14.165 2.176h3.456l2.24-7.776 1.376-4.864h.064l1.408 4.864 2.24 7.776h3.52l4.416-16.576h-2.784l-1.76 7.072-1.568 6.816h-.096l-1.92-6.816-2.112-7.072h-2.656l-2.048 7.072-1.888 6.816h-.064l-1.664-6.816-1.728-7.072h-2.88zm36.338-5.984-.96 3.104h-.16l-.864-3.104-3.68-10.592h-2.976l6.144 17.248-1.12 3.2h-2.72v2.528h1.632c2.528 0 3.328-.704 4.096-2.784l7.2-20.192h-2.88zm15.872 6.368c4.512 0 7.552-3.392 7.552-8.672s-3.04-8.672-7.552-8.672-7.552 3.392-7.552 8.672 3.04 8.672 7.552 8.672zm0-2.56c-2.592 0-4.384-1.632-4.384-4.864v-2.496c0-3.232 1.792-4.864 4.384-4.864s4.384 1.632 4.384 4.864v2.496c0 3.232-1.792 4.864-4.384 4.864zm21.744 2.176h2.976v-16.576h-2.976v11.328c0 2.08-1.92 3.04-3.808 3.04-2.336 0-3.52-1.44-3.52-4.224v-10.144h-2.976v10.592c0 4.032 2.112 6.368 5.504 6.368 2.752 0 4.032-1.504 4.64-3.104h.16zm11.207 0v-10.88c0-1.632 1.6-2.72 4.352-2.72h1.472v-2.976h-.992c-2.656 0-4.128 1.536-4.672 3.168h-.16v-3.168h-2.976v16.576zm-462.488 42h2.976v-16.576h-2.976v11.328c0 2.08-1.92 3.04-3.808 3.04-2.336 0-3.52-1.44-3.52-4.224v-10.144h-2.976v10.592c0 4.032 2.112 6.368 5.504 6.368 2.752 0 4.032-1.504 4.64-3.104h.16zm13.319.384c3.904 0 6.336-2.016 6.336-5.248 0-2.56-1.504-4.16-5.152-4.704l-1.408-.224c-1.92-.288-2.88-.896-2.88-2.368 0-1.408 1.024-2.336 3.04-2.336 1.984 0 3.392.928 4.192 1.984l1.888-1.792c-1.408-1.664-3.168-2.656-5.984-2.656-3.488 0-6.016 1.728-6.016 4.992 0 3.072 2.208 4.384 5.376 4.832l1.408.224c2.016.288 2.656 1.152 2.656 2.368 0 1.536-1.152 2.464-3.264 2.464-2.016 0-3.552-.896-4.8-2.464l-2.016 1.728c1.536 1.952 3.552 3.2 6.624 3.2zm16.936 0c3.104 0 5.504-1.44 6.656-3.584l-1.92-1.632c-.896 1.696-2.4 2.688-4.48 2.688-2.976 0-4.672-1.984-4.672-4.736v-.672h11.68v-1.248c0-4.64-2.624-8.16-7.264-8.16-4.608 0-7.52 3.424-7.52 8.672s2.912 8.672 7.52 8.672zm0-14.944c2.496 0 4.096 1.856 4.096 4.608v.32h-8.512v-.224c0-2.72 1.824-4.704 4.416-4.704zm14.296 14.56v-10.88c0-1.632 1.6-2.72 4.352-2.72h1.472v-2.976h-.992c-2.656 0-4.128 1.536-4.672 3.168h-.16v-3.168h-2.976v16.576zm14.112.384c3.904 0 6.336-2.016 6.336-5.248 0-2.56-1.504-4.16-5.152-4.704l-1.408-.224c-1.92-.288-2.88-.896-2.88-2.368 0-1.408 1.024-2.336 3.04-2.336 1.984 0 3.392.928 4.192 1.984l1.888-1.792c-1.408-1.664-3.168-2.656-5.984-2.656-3.488 0-6.016 1.728-6.016 4.992 0 3.072 2.208 4.384 5.376 4.832l1.408.224c2.016.288 2.656 1.152 2.656 2.368 0 1.536-1.152 2.464-3.264 2.464-2.016 0-3.552-.896-4.8-2.464l-2.016 1.728c1.536 1.952 3.552 3.2 6.624 3.2zm18.162-.384h2.976v-2.72h.128c.768 2.048 2.496 3.104 4.768 3.104 4.16 0 6.656-3.296 6.656-8.672s-2.496-8.672-6.656-8.672c-2.272 0-4 1.056-4.768 3.104h-.128v-9.824h-2.976zm7.008-2.208c-2.24 0-4.032-1.28-4.032-3.04v-6.08c0-1.76 1.792-3.04 4.032-3.04 2.656 0 4.352 1.888 4.352 4.672v2.816c0 2.784-1.696 4.672-4.352 4.672zm18.047 2.592c3.104 0 5.504-1.44 6.656-3.584l-1.92-1.632c-.896 1.696-2.4 2.688-4.48 2.688-2.976 0-4.672-1.984-4.672-4.736v-.672h11.68v-1.248c0-4.64-2.624-8.16-7.264-8.16-4.608 0-7.52 3.424-7.52 8.672s2.912 8.672 7.52 8.672zm0-14.944c2.496 0 4.096 1.856 4.096 4.608v.32h-8.512v-.224c0-2.72 1.824-4.704 4.416-4.704zm18.52 14.56v-2.528h-3.296v-11.52h3.552v-2.528h-3.552v-4.576h-2.688v3.04c0 1.12-.352 1.536-1.472 1.536h-1.472v2.528h2.656v10.912c0 1.92 1.088 3.136 3.136 3.136zm11.187 0v-2.528h-3.296v-11.52h3.552v-2.528h-3.552v-4.576h-2.688v3.04c0 1.12-.352 1.536-1.472 1.536h-1.472v2.528h2.656v10.912c0 1.92 1.088 3.136 3.136 3.136zm10.449.384c3.104 0 5.504-1.44 6.656-3.584l-1.92-1.632c-.896 1.696-2.4 2.688-4.48 2.688-2.976 0-4.672-1.984-4.672-4.736v-.672h11.68v-1.248c0-4.64-2.624-8.16-7.264-8.16-4.608 0-7.52 3.424-7.52 8.672s2.912 8.672 7.52 8.672zm0-14.944c2.496 0 4.096 1.856 4.096 4.608v.32h-8.512v-.224c0-2.72 1.824-4.704 4.416-4.704zm14.296 14.56v-10.88c0-1.632 1.6-2.72 4.352-2.72h1.472v-2.976h-.992c-2.656 0-4.128 1.536-4.672 3.168h-.16v-3.168h-2.976v16.576zm8.286.384c1.472 0 2.112-.832 2.112-1.984v-.48c0-1.152-.64-1.984-2.112-1.984s-2.112.832-2.112 1.984v.48c0 1.152.64 1.984 2.112 1.984zm-159.562 65.6v-4.32h-16.96v4.32h6.048v18.016h4.864v-18.016zm15.862 18.016v-3.68h-1.568v-7.36c0-3.968-2.432-6.144-7.168-6.144-3.52 0-5.44 1.216-6.784 3.2l2.816 2.496c.736-1.024 1.728-1.984 3.616-1.984 1.984 0 2.784 1.024 2.784 2.656v1.056h-2.656c-4.448 0-7.2 1.696-7.2 5.248 0 2.912 1.856 4.896 5.216 4.896 2.56 0 4.416-1.152 4.928-3.328h.192c.288 1.792 1.504 2.944 3.2 2.944zm-9.184-2.912c-1.408 0-2.208-.576-2.208-1.792v-.48c0-1.216.96-1.888 2.784-1.888h2.304v1.984c0 1.536-1.312 2.176-2.88 2.176zm18.058 3.296c4.32 0 7.2-2.368 7.2-5.6 0-2.912-1.888-4.576-5.536-5.056l-1.888-.256c-1.376-.192-1.76-.672-1.76-1.568 0-.832.64-1.408 2.24-1.408 1.408 0 2.816.672 3.872 1.728l2.72-2.784c-1.696-1.664-3.328-2.624-6.848-2.624-4 0-6.528 2.24-6.528 5.472 0 3.04 1.856 4.704 5.664 5.184l1.824.224c1.184.16 1.696.576 1.696 1.408 0 .992-.64 1.6-2.496 1.6-1.824 0-3.264-.832-4.448-2.144l-2.784 2.816c1.728 1.92 3.84 3.008 7.072 3.008zm10.429-.384h4.736v-4.736l2.112-2.368 3.776 7.104h5.632l-6.24-10.368 5.6-6.432h-5.248l-3.36 4-2.08 3.104h-.192v-13.984h-4.736zm-42.013 42.384c3.776 0 6.496-1.952 7.936-5.152l-2.496-1.504c-.832 2.304-2.688 3.872-5.44 3.872-3.648 0-5.856-2.72-5.856-7.072v-3.392c0-4.352 2.208-7.072 5.856-7.072 2.688 0 4.416 1.44 5.248 3.648l2.56-1.472c-1.44-3.2-4.032-4.96-7.808-4.96-5.696 0-9.184 4.096-9.184 11.552s3.488 11.552 9.184 11.552zm25.471-.384v-2.528h-1.856v-8.736c0-3.584-2.368-5.696-6.496-5.696-3.072 0-5.024 1.44-6.016 3.232l1.792 1.632c.864-1.408 2.112-2.368 4.064-2.368 2.496 0 3.68 1.248 3.68 3.456v1.504h-3.136c-4.736 0-7.072 1.728-7.072 4.928 0 3.04 2.016 4.96 5.472 4.96 2.368 0 4.128-1.088 4.8-3.136h.16c.224 1.6 1.088 2.752 2.912 2.752zm-8.896-2.016c-1.856 0-3.04-.864-3.04-2.4v-.64c0-1.536 1.216-2.368 3.936-2.368h3.168v2.56c0 1.664-1.728 2.848-4.064 2.848zm15.424 2.016v-10.88c0-1.632 1.6-2.72 4.352-2.72h1.472v-2.976h-.992c-2.656 0-4.128 1.536-4.672 3.168h-.16v-3.168h-2.976v16.576zm12 0v-10.88c0-1.632 1.6-2.72 4.352-2.72h1.472v-2.976h-.992c-2.656 0-4.128 1.536-4.672 3.168h-.16v-3.168h-2.976v16.576zm15.801-5.984-.96 3.104h-.16l-.864-3.104-3.68-10.592h-2.976l6.144 17.248-1.12 3.2h-2.72v2.528h1.632c2.528 0 3.328-.704 4.096-2.784l7.2-20.192h-2.88zm23.622 6.368c4.512 0 7.552-3.392 7.552-8.672s-3.04-8.672-7.552-8.672-7.552 3.392-7.552 8.672 3.04 8.672 7.552 8.672zm0-2.56c-2.592 0-4.384-1.632-4.384-4.864v-2.496c0-3.232 1.792-4.864 4.384-4.864s4.384 1.632 4.384 4.864v2.496c0 3.232-1.792 4.864-4.384 4.864zm21.745 2.176h2.976v-16.576h-2.976v11.328c0 2.08-1.92 3.04-3.808 3.04-2.336 0-3.52-1.44-3.52-4.224v-10.144h-2.976v10.592c0 4.032 2.112 6.368 5.504 6.368 2.752 0 4.032-1.504 4.64-3.104h.16zm15.431 0v-2.528h-3.296v-11.52h3.552v-2.528h-3.552v-4.576h-2.688v3.04c0 1.12-.352 1.536-1.472 1.536h-1.472v2.528h2.656v10.912c0 1.92 1.088 3.136 3.136 3.136zm19 0v-2.528h-3.296v-11.52h3.552v-2.528h-3.552v-4.576h-2.688v3.04c0 1.12-.352 1.536-1.472 1.536h-1.472v2.528h2.656v10.912c0 1.92 1.088 3.136 3.136 3.136zm4.238 0h2.976v-11.36c0-2.016 1.888-3.008 3.84-3.008 2.336 0 3.488 1.44 3.488 4.224v10.144h2.976v-10.592c0-4.032-2.08-6.368-5.472-6.368-2.496 0-3.904 1.28-4.672 3.104h-.16v-9.824h-2.976zm21.319 0v-10.88c0-1.632 1.6-2.72 4.352-2.72h1.472v-2.976h-.992c-2.656 0-4.128 1.536-4.672 3.168h-.16v-3.168h-2.976v16.576zm15.204.384c3.104 0 5.504-1.44 6.656-3.584l-1.92-1.632c-.896 1.696-2.4 2.688-4.48 2.688-2.976 0-4.672-1.984-4.672-4.736v-.672h11.68v-1.248c0-4.64-2.624-8.16-7.264-8.16-4.608 0-7.52 3.424-7.52 8.672s2.912 8.672 7.52 8.672zm0-14.944c2.496 0 4.096 1.856 4.096 4.608v.32h-8.512v-.224c0-2.72 1.824-4.704 4.416-4.704zm17.656 14.944c3.104 0 5.504-1.44 6.656-3.584l-1.92-1.632c-.896 1.696-2.4 2.688-4.48 2.688-2.976 0-4.672-1.984-4.672-4.736v-.672h11.68v-1.248c0-4.64-2.624-8.16-7.264-8.16-4.608 0-7.52 3.424-7.52 8.672s2.912 8.672 7.52 8.672zm0-14.944c2.496 0 4.096 1.856 4.096 4.608v.32h-8.512v-.224c0-2.72 1.824-4.704 4.416-4.704zm29.027 14.56h2.976v-16.576h-2.976v11.328c0 2.08-1.92 3.04-3.808 3.04-2.336 0-3.52-1.44-3.52-4.224v-10.144h-2.976v10.592c0 4.032 2.112 6.368 5.504 6.368 2.752 0 4.032-1.504 4.64-3.104h.16zm13.319.384c3.904 0 6.336-2.016 6.336-5.248 0-2.56-1.504-4.16-5.152-4.704l-1.408-.224c-1.92-.288-2.88-.896-2.88-2.368 0-1.408 1.024-2.336 3.04-2.336 1.984 0 3.392.928 4.192 1.984l1.888-1.792c-1.408-1.664-3.168-2.656-5.984-2.656-3.488 0-6.016 1.728-6.016 4.992 0 3.072 2.208 4.384 5.376 4.832l1.408.224c2.016.288 2.656 1.152 2.656 2.368 0 1.536-1.152 2.464-3.264 2.464-2.016 0-3.552-.896-4.8-2.464l-2.016 1.728c1.536 1.952 3.552 3.2 6.624 3.2zm16.936 0c3.104 0 5.504-1.44 6.656-3.584l-1.92-1.632c-.896 1.696-2.4 2.688-4.48 2.688-2.976 0-4.672-1.984-4.672-4.736v-.672h11.68v-1.248c0-4.64-2.624-8.16-7.264-8.16-4.608 0-7.52 3.424-7.52 8.672s2.912 8.672 7.52 8.672zm0-14.944c2.496 0 4.096 1.856 4.096 4.608v.32h-8.512v-.224c0-2.72 1.824-4.704 4.416-4.704zm14.296 14.56v-10.88c0-1.632 1.6-2.72 4.352-2.72h1.472v-2.976h-.992c-2.656 0-4.128 1.536-4.672 3.168h-.16v-3.168h-2.976v16.576zm18.09-20.032c1.248 0 1.792-.672 1.792-1.632v-.448c0-.96-.544-1.632-1.792-1.632s-1.792.672-1.792 1.632v.448c0 .96.544 1.632 1.792 1.632zm-1.504 20.032h2.976v-16.576h-2.976zm11.195 0v-11.36c0-2.016 1.888-3.008 3.84-3.008 2.336 0 3.488 1.44 3.488 4.224v10.144h2.976v-10.592c0-4.032-2.08-6.368-5.472-6.368-2.496 0-3.904 1.28-4.672 3.104h-.16v-2.72h-2.976v16.576zm22.568 0v-2.528h-3.296v-11.52h3.552v-2.528h-3.552v-4.576h-2.688v3.04c0 1.12-.352 1.536-1.472 1.536h-1.472v2.528h2.656v10.912c0 1.92 1.088 3.136 3.136 3.136zm10.448.384c3.104 0 5.504-1.44 6.656-3.584l-1.92-1.632c-.896 1.696-2.4 2.688-4.48 2.688-2.976 0-4.672-1.984-4.672-4.736v-.672h11.68v-1.248c0-4.64-2.624-8.16-7.264-8.16-4.608 0-7.52 3.424-7.52 8.672s2.912 8.672 7.52 8.672zm0-14.944c2.496 0 4.096 1.856 4.096 4.608v.32h-8.512v-.224c0-2.72 1.824-4.704 4.416-4.704zm14.297 14.56v-10.88c0-1.632 1.6-2.72 4.352-2.72h1.472v-2.976h-.992c-2.656 0-4.128 1.536-4.672 3.168h-.16v-3.168h-2.976v16.576zm16.409 0 5.76-16.576h-2.848l-2.752 7.936-1.76 5.728h-.192l-1.728-5.728-2.72-7.936h-2.976l5.728 16.576zm10.4-20.032c1.248 0 1.792-.672 1.792-1.632v-.448c0-.96-.544-1.632-1.792-1.632s-1.792.672-1.792 1.632v.448c0 .96.544 1.632 1.792 1.632zm-1.504 20.032h2.976v-16.576h-2.976zm14.555.384c3.104 0 5.504-1.44 6.656-3.584l-1.92-1.632c-.896 1.696-2.4 2.688-4.48 2.688-2.976 0-4.672-1.984-4.672-4.736v-.672h11.68v-1.248c0-4.64-2.624-8.16-7.264-8.16-4.608 0-7.52 3.424-7.52 8.672s2.912 8.672 7.52 8.672zm0-14.944c2.496 0 4.096 1.856 4.096 4.608v.32h-8.512v-.224c0-2.72 1.824-4.704 4.416-4.704zm13.916 14.56h3.456l2.24-7.776 1.376-4.864h.064l1.408 4.864 2.24 7.776h3.52l4.416-16.576h-2.784l-1.76 7.072-1.568 6.816h-.096l-1.92-6.816-2.112-7.072h-2.656l-2.048 7.072-1.888 6.816h-.064l-1.664-6.816-1.728-7.072h-2.88zm27.304.384c3.904 0 6.336-2.016 6.336-5.248 0-2.56-1.504-4.16-5.152-4.704l-1.408-.224c-1.92-.288-2.88-.896-2.88-2.368 0-1.408 1.024-2.336 3.04-2.336 1.984 0 3.392.928 4.192 1.984l1.888-1.792c-1.408-1.664-3.168-2.656-5.984-2.656-3.488 0-6.016 1.728-6.016 4.992 0 3.072 2.208 4.384 5.376 4.832l1.408.224c2.016.288 2.656 1.152 2.656 2.368 0 1.536-1.152 2.464-3.264 2.464-2.016 0-3.552-.896-4.8-2.464l-2.016 1.728c1.536 1.952 3.552 3.2 6.624 3.2zm24.53 0c4.512 0 7.552-3.392 7.552-8.672s-3.04-8.672-7.552-8.672-7.552 3.392-7.552 8.672 3.04 8.672 7.552 8.672zm0-2.56c-2.592 0-4.384-1.632-4.384-4.864v-2.496c0-3.232 1.792-4.864 4.384-4.864s4.384 1.632 4.384 4.864v2.496c0 3.232-1.792 4.864-4.384 4.864zm14.577 2.176v-11.36c0-2.016 1.888-3.008 3.84-3.008 2.336 0 3.488 1.44 3.488 4.224v10.144h2.976v-10.592c0-4.032-2.08-6.368-5.472-6.368-2.496 0-3.904 1.28-4.672 3.104h-.16v-2.72h-2.976v16.576zm-468.026 42v-2.528h-3.296v-11.52h3.552v-2.528h-3.552v-4.576h-2.688v3.04c0 1.12-.352 1.536-1.472 1.536h-1.472v2.528h2.656v10.912c0 1.92 1.088 3.136 3.136 3.136zm4.238 0h2.976v-11.36c0-2.016 1.888-3.008 3.84-3.008 2.336 0 3.488 1.44 3.488 4.224v10.144h2.976v-10.592c0-4.032-2.08-6.368-5.472-6.368-2.496 0-3.904 1.28-4.672 3.104h-.16v-9.824h-2.976zm24.679.384c3.104 0 5.504-1.44 6.656-3.584l-1.92-1.632c-.896 1.696-2.4 2.688-4.48 2.688-2.976 0-4.672-1.984-4.672-4.736v-.672h11.68v-1.248c0-4.64-2.624-8.16-7.264-8.16-4.608 0-7.52 3.424-7.52 8.672s2.912 8.672 7.52 8.672zm0-14.944c2.496 0 4.096 1.856 4.096 4.608v.32h-8.512v-.224c0-2.72 1.824-4.704 4.416-4.704zm23.971 14.944c3.904 0 6.336-2.016 6.336-5.248 0-2.56-1.504-4.16-5.152-4.704l-1.408-.224c-1.92-.288-2.88-.896-2.88-2.368 0-1.408 1.024-2.336 3.04-2.336 1.984 0 3.392.928 4.192 1.984l1.888-1.792c-1.408-1.664-3.168-2.656-5.984-2.656-3.488 0-6.016 1.728-6.016 4.992 0 3.072 2.208 4.384 5.376 4.832l1.408.224c2.016.288 2.656 1.152 2.656 2.368 0 1.536-1.152 2.464-3.264 2.464-2.016 0-3.552-.896-4.8-2.464l-2.016 1.728c1.536 1.952 3.552 3.2 6.624 3.2zm20.744-.384h2.976v-16.576h-2.976v11.328c0 2.08-1.92 3.04-3.808 3.04-2.336 0-3.52-1.44-3.52-4.224v-10.144h-2.976v10.592c0 4.032 2.112 6.368 5.504 6.368 2.752 0 4.032-1.504 4.64-3.104h.16zm8.231 0h2.976v-2.72h.128c.768 2.048 2.496 3.104 4.768 3.104 4.16 0 6.656-3.296 6.656-8.672s-2.496-8.672-6.656-8.672c-2.272 0-4 1.056-4.768 3.104h-.128v-9.824h-2.976zm7.008-2.208c-2.24 0-4.032-1.28-4.032-3.04v-6.08c0-1.76 1.792-3.04 4.032-3.04 2.656 0 4.352 1.888 4.352 4.672v2.816c0 2.784-1.696 4.672-4.352 4.672zm11.71 6.08h-2.656v2.528h1.824c2.624 0 3.808-1.568 3.808-4v-18.976h-2.976zm1.504-23.904c1.248 0 1.792-.672 1.792-1.632v-.448c0-.96-.544-1.632-1.792-1.632s-1.792.672-1.792 1.632v.448c0 .96.544 1.632 1.792 1.632zm13.051 20.416c3.104 0 5.504-1.44 6.656-3.584l-1.92-1.632c-.896 1.696-2.4 2.688-4.48 2.688-2.976 0-4.672-1.984-4.672-4.736v-.672h11.68v-1.248c0-4.64-2.624-8.16-7.264-8.16-4.608 0-7.52 3.424-7.52 8.672s2.912 8.672 7.52 8.672zm0-14.944c2.496 0 4.096 1.856 4.096 4.608v.32h-8.512v-.224c0-2.72 1.824-4.704 4.416-4.704zm17.592 14.944c3.168 0 5.344-1.536 6.4-4.032l-2.176-1.344c-.832 1.792-2.208 2.816-4.224 2.816-2.848 0-4.288-1.952-4.288-4.672v-2.88c0-2.72 1.44-4.672 4.288-4.672 1.92 0 3.264.992 3.808 2.624l2.464-1.216c-.96-2.368-3.008-3.968-6.272-3.968-4.736 0-7.456 3.36-7.456 8.672s2.72 8.672 7.456 8.672zm17.085-.384v-2.528h-3.296v-11.52h3.552v-2.528h-3.552v-4.576h-2.688v3.04c0 1.12-.352 1.536-1.472 1.536h-1.472v2.528h2.656v10.912c0 1.92 1.088 3.136 3.136 3.136zm18.168.384c4.512 0 7.552-3.392 7.552-8.672s-3.04-8.672-7.552-8.672-7.552 3.392-7.552 8.672 3.04 8.672 7.552 8.672zm0-2.56c-2.592 0-4.384-1.632-4.384-4.864v-2.496c0-3.232 1.792-4.864 4.384-4.864s4.384 1.632 4.384 4.864v2.496c0 3.232-1.792 4.864-4.384 4.864zm12.309 2.176h2.976v-14.048h3.488v-2.528h-3.488v-4.576h3.488v-2.528h-2.592c-2.592 0-3.872 1.6-3.872 4.032v3.072h-2.656v2.528h2.656zm27.756 0h2.976v-23.68h-2.976v9.824h-.128c-.768-2.048-2.496-3.104-4.768-3.104-4.16 0-6.656 3.296-6.656 8.672s2.496 8.672 6.656 8.672c2.272 0 4-1.056 4.768-3.104h.128zm-4.032-2.208c-2.656 0-4.352-1.888-4.352-4.672v-2.816c0-2.784 1.696-4.672 4.352-4.672 2.24 0 4.032 1.28 4.032 3.04v6.08c0 1.76-1.792 3.04-4.032 3.04zm13.759-17.824c1.248 0 1.792-.672 1.792-1.632v-.448c0-.96-.544-1.632-1.792-1.632s-1.792.672-1.792 1.632v.448c0 .96.544 1.632 1.792 1.632zm-1.504 20.032h2.976v-16.576h-2.976zm22.459 1.696c0-2.784-1.76-4.48-5.856-4.48h-3.776c-1.504 0-2.432-.288-2.432-1.248 0-.928.928-1.472 1.888-1.76a8.475 8.475 0 0 0 1.856.192c4 0 6.432-2.304 6.432-5.664 0-1.824-.736-3.36-2.08-4.352v-.896h3.264v-2.496h-2.528c-1.408 0-2.016.896-2.016 2.272v.352a8.34 8.34 0 0 0 -3.072-.576c-3.968 0-6.4 2.336-6.4 5.696 0 2.272 1.12 4.096 3.072 5.024v.128c-1.632.384-2.88 1.216-2.88 2.88 0 1.184.576 2.016 1.632 2.432v.352c-1.696.416-2.72 1.408-2.72 3.2 0 2.56 2.112 4.032 7.392 4.032 5.6 0 8.224-1.664 8.224-5.088zm-2.784.288c0 1.696-1.536 2.528-4.352 2.528h-2.24c-2.592 0-3.584-1.088-3.584-2.464 0-.928.416-1.632 1.344-2.112h5.568c2.432 0 3.264.8 3.264 2.048zm-5.504-9.824c-2.112 0-3.424-.992-3.424-3.008v-.832c0-2.016 1.312-3.008 3.424-3.008s3.424.992 3.424 3.008v.832c0 2.016-1.312 3.008-3.424 3.008zm12.614-12.192c1.248 0 1.792-.672 1.792-1.632v-.448c0-.96-.544-1.632-1.792-1.632s-1.792.672-1.792 1.632v.448c0 .96.544 1.632 1.792 1.632zm-1.504 20.032h2.976v-16.576h-2.976zm15.419 0v-2.528h-3.296v-11.52h3.552v-2.528h-3.552v-4.576h-2.688v3.04c0 1.12-.352 1.536-1.472 1.536h-1.472v2.528h2.656v10.912c0 1.92 1.088 3.136 3.136 3.136zm17.997 0v-2.528h-1.856v-8.736c0-3.584-2.368-5.696-6.496-5.696-3.072 0-5.024 1.44-6.016 3.232l1.792 1.632c.864-1.408 2.112-2.368 4.064-2.368 2.496 0 3.68 1.248 3.68 3.456v1.504h-3.136c-4.736 0-7.072 1.728-7.072 4.928 0 3.04 2.016 4.96 5.472 4.96 2.368 0 4.128-1.088 4.8-3.136h.16c.224 1.6 1.088 2.752 2.912 2.752zm-8.896-2.016c-1.856 0-3.04-.864-3.04-2.4v-.64c0-1.536 1.216-2.368 3.936-2.368h3.168v2.56c0 1.664-1.728 2.848-4.064 2.848zm17.793 2.016v-2.528h-2.368v-21.152h-2.976v20.64c0 1.824 1.056 3.04 3.104 3.04zm14.101 0v-11.36c0-2.016 1.888-3.008 3.84-3.008 2.336 0 3.488 1.44 3.488 4.224v10.144h2.976v-10.592c0-4.032-2.08-6.368-5.472-6.368-2.496 0-3.904 1.28-4.672 3.104h-.16v-2.72h-2.976v16.576zm21.735.384c4.512 0 7.552-3.392 7.552-8.672s-3.04-8.672-7.552-8.672-7.552 3.392-7.552 8.672 3.04 8.672 7.552 8.672zm0-2.56c-2.592 0-4.384-1.632-4.384-4.864v-2.496c0-3.232 1.792-4.864 4.384-4.864s4.384 1.632 4.384 4.864v2.496c0 3.232-1.792 4.864-4.384 4.864zm18.77 2.176v-2.528h-3.296v-11.52h3.552v-2.528h-3.552v-4.576h-2.688v3.04c0 1.12-.352 1.536-1.472 1.536h-1.472v2.528h2.656v10.912c0 1.92 1.088 3.136 3.136 3.136zm10.448.384c3.104 0 5.504-1.44 6.656-3.584l-1.92-1.632c-.896 1.696-2.4 2.688-4.48 2.688-2.976 0-4.672-1.984-4.672-4.736v-.672h11.68v-1.248c0-4.64-2.624-8.16-7.264-8.16-4.608 0-7.52 3.424-7.52 8.672s2.912 8.672 7.52 8.672zm0-14.944c2.496 0 4.096 1.856 4.096 4.608v.32h-8.512v-.224c0-2.72 1.824-4.704 4.416-4.704zm19.697 6.368v-3.104h-8.576v3.104zm11.949 8.192v-2.528h-3.296v-11.52h3.552v-2.528h-3.552v-4.576h-2.688v3.04c0 1.12-.352 1.536-1.472 1.536h-1.472v2.528h2.656v10.912c0 1.92 1.088 3.136 3.136 3.136zm17.997 0v-2.528h-1.856v-8.736c0-3.584-2.368-5.696-6.496-5.696-3.072 0-5.024 1.44-6.016 3.232l1.792 1.632c.864-1.408 2.112-2.368 4.064-2.368 2.496 0 3.68 1.248 3.68 3.456v1.504h-3.136c-4.736 0-7.072 1.728-7.072 4.928 0 3.04 2.016 4.96 5.472 4.96 2.368 0 4.128-1.088 4.8-3.136h.16c.224 1.6 1.088 2.752 2.912 2.752zm-8.896-2.016c-1.856 0-3.04-.864-3.04-2.4v-.64c0-1.536 1.216-2.368 3.936-2.368h3.168v2.56c0 1.664-1.728 2.848-4.064 2.848zm12.449 2.016h2.976v-5.728l2.368-2.528 5.184 8.256h3.584l-6.656-10.176 5.888-6.4h-3.52l-4.32 4.736-2.368 2.912h-.16v-14.752h-2.976zm18.691-20.032c1.248 0 1.792-.672 1.792-1.632v-.448c0-.96-.544-1.632-1.792-1.632s-1.792.672-1.792 1.632v.448c0 .96.544 1.632 1.792 1.632zm-1.504 20.032h2.976v-16.576h-2.976zm11.195 0v-11.36c0-2.016 1.888-3.008 3.84-3.008 2.336 0 3.488 1.44 3.488 4.224v10.144h2.976v-10.592c0-4.032-2.08-6.368-5.472-6.368-2.496 0-3.904 1.28-4.672 3.104h-.16v-2.72h-2.976v16.576zm29.608 1.696c0-2.784-1.76-4.48-5.856-4.48h-3.776c-1.504 0-2.432-.288-2.432-1.248 0-.928.928-1.472 1.888-1.76a8.475 8.475 0 0 0 1.856.192c4 0 6.432-2.304 6.432-5.664 0-1.824-.736-3.36-2.08-4.352v-.896h3.264v-2.496h-2.528c-1.408 0-2.016.896-2.016 2.272v.352a8.34 8.34 0 0 0 -3.072-.576c-3.968 0-6.4 2.336-6.4 5.696 0 2.272 1.12 4.096 3.072 5.024v.128c-1.632.384-2.88 1.216-2.88 2.88 0 1.184.576 2.016 1.632 2.432v.352c-1.696.416-2.72 1.408-2.72 3.2 0 2.56 2.112 4.032 7.392 4.032 5.6 0 8.224-1.664 8.224-5.088zm-2.784.288c0 1.696-1.536 2.528-4.352 2.528h-2.24c-2.592 0-3.584-1.088-3.584-2.464 0-.928.416-1.632 1.344-2.112h5.568c2.432 0 3.264.8 3.264 2.048zm-5.504-9.824c-2.112 0-3.424-.992-3.424-3.008v-.832c0-2.016 1.312-3.008 3.424-3.008s3.424.992 3.424 3.008v.832c0 2.016-1.312 3.008-3.424 3.008zm13.309 8.224c1.472 0 2.112-.832 2.112-1.984v-.48c0-1.152-.64-1.984-2.112-1.984s-2.112.832-2.112 1.984v.48c0 1.152.64 1.984 2.112 1.984zm-454.884 41.616-7.712-22.336h-3.904l-7.744 22.336h3.136l2.144-6.304h8.704l2.112 6.304zm-6.144-9.056h-7.2l3.52-10.432h.16zm12.461 9.056v-11.36c0-2.016 1.888-3.008 3.84-3.008 2.336 0 3.488 1.44 3.488 4.224v10.144h2.976v-10.592c0-4.032-2.08-6.368-5.472-6.368-2.496 0-3.904 1.28-4.672 3.104h-.16v-2.72h-2.976v16.576zm29.128 0v-2.528h-1.856v-8.736c0-3.584-2.368-5.696-6.496-5.696-3.072 0-5.024 1.44-6.016 3.232l1.792 1.632c.864-1.408 2.112-2.368 4.064-2.368 2.496 0 3.68 1.248 3.68 3.456v1.504h-3.136c-4.736 0-7.072 1.728-7.072 4.928 0 3.04 2.016 4.96 5.472 4.96 2.368 0 4.128-1.088 4.8-3.136h.16c.224 1.6 1.088 2.752 2.912 2.752zm-8.896-2.016c-1.856 0-3.04-.864-3.04-2.4v-.64c0-1.536 1.216-2.368 3.936-2.368h3.168v2.56c0 1.664-1.728 2.848-4.064 2.848zm17.793 2.016v-2.528h-2.368v-21.152h-2.976v20.64c0 1.824 1.056 3.04 3.104 3.04zm9.777-5.984-.96 3.104h-.16l-.864-3.104-3.68-10.592h-2.976l6.144 17.248-1.12 3.2h-2.72v2.528h1.632c2.528 0 3.328-.704 4.096-2.784l7.2-20.192h-2.88zm21.116 5.984v-2.528h-9.6l9.344-11.776v-2.272h-12.448v2.528h8.896l-9.184 11.584v2.464zm9.724.384c3.104 0 5.504-1.44 6.656-3.584l-1.92-1.632c-.896 1.696-2.4 2.688-4.48 2.688-2.976 0-4.672-1.984-4.672-4.736v-.672h11.68v-1.248c0-4.64-2.624-8.16-7.264-8.16-4.608 0-7.52 3.424-7.52 8.672s2.912 8.672 7.52 8.672zm0-14.944c2.496 0 4.096 1.856 4.096 4.608v.32h-8.512v-.224c0-2.72 1.824-4.704 4.416-4.704zm25.378 8.576-.96 3.104h-.16l-.864-3.104-3.68-10.592h-2.976l6.144 17.248-1.12 3.2h-2.72v2.528h1.632c2.528 0 3.328-.704 4.096-2.784l7.2-20.192h-2.88zm15.872 6.368c4.512 0 7.552-3.392 7.552-8.672s-3.04-8.672-7.552-8.672-7.552 3.392-7.552 8.672 3.04 8.672 7.552 8.672zm0-2.56c-2.592 0-4.384-1.632-4.384-4.864v-2.496c0-3.232 1.792-4.864 4.384-4.864s4.384 1.632 4.384 4.864v2.496c0 3.232-1.792 4.864-4.384 4.864zm21.745 2.176h2.976v-16.576h-2.976v11.328c0 2.08-1.92 3.04-3.808 3.04-2.336 0-3.52-1.44-3.52-4.224v-10.144h-2.976v10.592c0 4.032 2.112 6.368 5.504 6.368 2.752 0 4.032-1.504 4.64-3.104h.16zm11.207 0v-10.88c0-1.632 1.6-2.72 4.352-2.72h1.472v-2.976h-.992c-2.656 0-4.128 1.536-4.672 3.168h-.16v-3.168h-2.976v16.576zm17.483 0h2.976v-14.048h6.528v14.048h2.976v-16.576h-9.504v-4.576h3.488v-2.528h-2.592c-2.592 0-3.872 1.6-3.872 4.032v3.072h-2.656v2.528h2.656zm11.008-20.032c1.248 0 1.792-.672 1.792-1.632v-.448c0-.96-.544-1.632-1.792-1.632s-1.792.672-1.792 1.632v.448c0 .96.544 1.632 1.792 1.632zm9.697 20.032v-11.36c0-2.016 1.888-3.008 3.84-3.008 2.336 0 3.488 1.44 3.488 4.224v10.144h2.976v-10.592c0-4.032-2.08-6.368-5.472-6.368-2.496 0-3.904 1.28-4.672 3.104h-.16v-2.72h-2.976v16.576zm25.863 0h2.976v-23.68h-2.976v9.824h-.128c-.768-2.048-2.496-3.104-4.768-3.104-4.16 0-6.656 3.296-6.656 8.672s2.496 8.672 6.656 8.672c2.272 0 4-1.056 4.768-3.104h.128zm-4.032-2.208c-2.656 0-4.352-1.888-4.352-4.672v-2.816c0-2.784 1.696-4.672 4.352-4.672 2.24 0 4.032 1.28 4.032 3.04v6.08c0 1.76-1.792 3.04-4.032 3.04zm13.759-17.824c1.248 0 1.792-.672 1.792-1.632v-.448c0-.96-.544-1.632-1.792-1.632s-1.792.672-1.792 1.632v.448c0 .96.544 1.632 1.792 1.632zm-1.504 20.032h2.976v-16.576h-2.976zm11.195 0v-11.36c0-2.016 1.888-3.008 3.84-3.008 2.336 0 3.488 1.44 3.488 4.224v10.144h2.976v-10.592c0-4.032-2.08-6.368-5.472-6.368-2.496 0-3.904 1.28-4.672 3.104h-.16v-2.72h-2.976v16.576zm29.608 1.696c0-2.784-1.76-4.48-5.856-4.48h-3.776c-1.504 0-2.432-.288-2.432-1.248 0-.928.928-1.472 1.888-1.76a8.475 8.475 0 0 0 1.856.192c4 0 6.432-2.304 6.432-5.664 0-1.824-.736-3.36-2.08-4.352v-.896h3.264v-2.496h-2.528c-1.408 0-2.016.896-2.016 2.272v.352a8.34 8.34 0 0 0 -3.072-.576c-3.968 0-6.4 2.336-6.4 5.696 0 2.272 1.12 4.096 3.072 5.024v.128c-1.632.384-2.88 1.216-2.88 2.88 0 1.184.576 2.016 1.632 2.432v.352c-1.696.416-2.72 1.408-2.72 3.2 0 2.56 2.112 4.032 7.392 4.032 5.6 0 8.224-1.664 8.224-5.088zm-2.784.288c0 1.696-1.536 2.528-4.352 2.528h-2.24c-2.592 0-3.584-1.088-3.584-2.464 0-.928.416-1.632 1.344-2.112h5.568c2.432 0 3.264.8 3.264 2.048zm-5.504-9.824c-2.112 0-3.424-.992-3.424-3.008v-.832c0-2.016 1.312-3.008 3.424-3.008s3.424.992 3.424 3.008v.832c0 2.016-1.312 3.008-3.424 3.008zm16.198 8.224c3.904 0 6.336-2.016 6.336-5.248 0-2.56-1.504-4.16-5.152-4.704l-1.408-.224c-1.92-.288-2.88-.896-2.88-2.368 0-1.408 1.024-2.336 3.04-2.336 1.984 0 3.392.928 4.192 1.984l1.888-1.792c-1.408-1.664-3.168-2.656-5.984-2.656-3.488 0-6.016 1.728-6.016 4.992 0 3.072 2.208 4.384 5.376 4.832l1.408.224c2.016.288 2.656 1.152 2.656 2.368 0 1.536-1.152 2.464-3.264 2.464-2.016 0-3.552-.896-4.8-2.464l-2.016 1.728c1.536 1.952 3.552 3.2 6.624 3.2zm31.922-.384v-2.528h-1.856v-8.736c0-3.584-2.368-5.696-6.496-5.696-3.072 0-5.024 1.44-6.016 3.232l1.792 1.632c.864-1.408 2.112-2.368 4.064-2.368 2.496 0 3.68 1.248 3.68 3.456v1.504h-3.136c-4.736 0-7.072 1.728-7.072 4.928 0 3.04 2.016 4.96 5.472 4.96 2.368 0 4.128-1.088 4.8-3.136h.16c.224 1.6 1.088 2.752 2.912 2.752zm-8.896-2.016c-1.856 0-3.04-.864-3.04-2.4v-.64c0-1.536 1.216-2.368 3.936-2.368h3.168v2.56c0 1.664-1.728 2.848-4.064 2.848zm15.425 2.016v-11.36c0-2.016 1.888-3.008 3.84-3.008 2.336 0 3.488 1.44 3.488 4.224v10.144h2.976v-10.592c0-4.032-2.08-6.368-5.472-6.368-2.496 0-3.904 1.28-4.672 3.104h-.16v-2.72h-2.976v16.576zm25.863 0h2.976v-23.68h-2.976v9.824h-.128c-.768-2.048-2.496-3.104-4.768-3.104-4.16 0-6.656 3.296-6.656 8.672s2.496 8.672 6.656 8.672c2.272 0 4-1.056 4.768-3.104h.128zm-4.032-2.208c-2.656 0-4.352-1.888-4.352-4.672v-2.816c0-2.784 1.696-4.672 4.352-4.672 2.24 0 4.032 1.28 4.032 3.04v6.08c0 1.76-1.792 3.04-4.032 3.04zm26.09 2.592c3.168 0 5.344-1.536 6.4-4.032l-2.176-1.344c-.832 1.792-2.208 2.816-4.224 2.816-2.848 0-4.288-1.952-4.288-4.672v-2.88c0-2.72 1.44-4.672 4.288-4.672 1.92 0 3.264.992 3.808 2.624l2.464-1.216c-.96-2.368-3.008-3.968-6.272-3.968-4.736 0-7.456 3.36-7.456 8.672s2.72 8.672 7.456 8.672zm12.86-.384v-10.88c0-1.632 1.6-2.72 4.352-2.72h1.472v-2.976h-.992c-2.656 0-4.128 1.536-4.672 3.168h-.16v-3.168h-2.976v16.576zm15.204.384c3.104 0 5.504-1.44 6.656-3.584l-1.92-1.632c-.896 1.696-2.4 2.688-4.48 2.688-2.976 0-4.672-1.984-4.672-4.736v-.672h11.68v-1.248c0-4.64-2.624-8.16-7.264-8.16-4.608 0-7.52 3.424-7.52 8.672s2.912 8.672 7.52 8.672zm0-14.944c2.496 0 4.096 1.856 4.096 4.608v.32h-8.512v-.224c0-2.72 1.824-4.704 4.416-4.704zm25.08 14.56v-2.528h-1.856v-8.736c0-3.584-2.368-5.696-6.496-5.696-3.072 0-5.024 1.44-6.016 3.232l1.792 1.632c.864-1.408 2.112-2.368 4.064-2.368 2.496 0 3.68 1.248 3.68 3.456v1.504h-3.136c-4.736 0-7.072 1.728-7.072 4.928 0 3.04 2.016 4.96 5.472 4.96 2.368 0 4.128-1.088 4.8-3.136h.16c.224 1.6 1.088 2.752 2.912 2.752zm-8.896-2.016c-1.856 0-3.04-.864-3.04-2.4v-.64c0-1.536 1.216-2.368 3.936-2.368h3.168v2.56c0 1.664-1.728 2.848-4.064 2.848zm19.617 2.016v-2.528h-3.296v-11.52h3.552v-2.528h-3.552v-4.576h-2.688v3.04c0 1.12-.352 1.536-1.472 1.536h-1.472v2.528h2.656v10.912c0 1.92 1.088 3.136 3.136 3.136zm10.449.384c3.104 0 5.504-1.44 6.656-3.584l-1.92-1.632c-.896 1.696-2.4 2.688-4.48 2.688-2.976 0-4.672-1.984-4.672-4.736v-.672h11.68v-1.248c0-4.64-2.624-8.16-7.264-8.16-4.608 0-7.52 3.424-7.52 8.672s2.912 8.672 7.52 8.672zm0-14.944c2.496 0 4.096 1.856 4.096 4.608v.32h-8.512v-.224c0-2.72 1.824-4.704 4.416-4.704zm32.642 14.56v-2.528h-1.856v-8.736c0-3.584-2.368-5.696-6.496-5.696-3.072 0-5.024 1.44-6.016 3.232l1.792 1.632c.864-1.408 2.112-2.368 4.064-2.368 2.496 0 3.68 1.248 3.68 3.456v1.504h-3.136c-4.736 0-7.072 1.728-7.072 4.928 0 3.04 2.016 4.96 5.472 4.96 2.368 0 4.128-1.088 4.8-3.136h.16c.224 1.6 1.088 2.752 2.912 2.752zm-8.896-2.016c-1.856 0-3.04-.864-3.04-2.4v-.64c0-1.536 1.216-2.368 3.936-2.368h3.168v2.56c0 1.664-1.728 2.848-4.064 2.848zm-479.044 44.016v-10.88c0-1.632 1.6-2.72 4.352-2.72h1.472v-2.976h-.992c-2.656 0-4.128 1.536-4.672 3.168h-.16v-3.168h-2.976v16.576zm15.204.384c3.104 0 5.504-1.44 6.656-3.584l-1.92-1.632c-.896 1.696-2.4 2.688-4.48 2.688-2.976 0-4.672-1.984-4.672-4.736v-.672h11.68v-1.248c0-4.64-2.624-8.16-7.264-8.16-4.608 0-7.52 3.424-7.52 8.672s2.912 8.672 7.52 8.672zm0-14.944c2.496 0 4.096 1.856 4.096 4.608v.32h-8.512v-.224c0-2.72 1.824-4.704 4.416-4.704zm11.32 20.96h2.976v-9.12h.128c.768 2.048 2.496 3.104 4.768 3.104 4.16 0 6.656-3.296 6.656-8.672s-2.496-8.672-6.656-8.672c-2.272 0-4 1.056-4.768 3.104h-.128v-2.72h-2.976zm7.008-8.608c-2.24 0-4.032-1.28-4.032-3.04v-6.08c0-1.76 1.792-3.04 4.032-3.04 2.656 0 4.352 1.888 4.352 4.672v2.816c0 2.784-1.696 4.672-4.352 4.672zm18.079 2.592c4.512 0 7.552-3.392 7.552-8.672s-3.04-8.672-7.552-8.672-7.552 3.392-7.552 8.672 3.04 8.672 7.552 8.672zm0-2.56c-2.592 0-4.384-1.632-4.384-4.864v-2.496c0-3.232 1.792-4.864 4.384-4.864s4.384 1.632 4.384 4.864v2.496c0 3.232-1.792 4.864-4.384 4.864zm14.577 2.176v-10.88c0-1.632 1.6-2.72 4.352-2.72h1.472v-2.976h-.992c-2.656 0-4.128 1.536-4.672 3.168h-.16v-3.168h-2.976v16.576zm16.349 0v-2.528h-3.296v-11.52h3.552v-2.528h-3.552v-4.576h-2.688v3.04c0 1.12-.352 1.536-1.472 1.536h-1.472v2.528h2.656v10.912c0 1.92 1.088 3.136 3.136 3.136zm14.552 0h3.456l2.24-7.776 1.376-4.864h.064l1.408 4.864 2.24 7.776h3.52l4.416-16.576h-2.784l-1.76 7.072-1.568 6.816h-.096l-1.92-6.816-2.112-7.072h-2.656l-2.048 7.072-1.888 6.816h-.064l-1.664-6.816-1.728-7.072h-2.88zm23.783-20.032c1.248 0 1.792-.672 1.792-1.632v-.448c0-.96-.544-1.632-1.792-1.632s-1.792.672-1.792 1.632v.448c0 .96.544 1.632 1.792 1.632zm-1.504 20.032h2.976v-16.576h-2.976zm15.419 0v-2.528h-3.296v-11.52h3.552v-2.528h-3.552v-4.576h-2.688v3.04c0 1.12-.352 1.536-1.472 1.536h-1.472v2.528h2.656v10.912c0 1.92 1.088 3.136 3.136 3.136zm4.237 0h2.976v-11.36c0-2.016 1.888-3.008 3.84-3.008 2.336 0 3.488 1.44 3.488 4.224v10.144h2.976v-10.592c0-4.032-2.08-6.368-5.472-6.368-2.496 0-3.904 1.28-4.672 3.104h-.16v-9.824h-2.976zm28.882 0v-10.88c0-1.632 1.6-2.72 4.352-2.72h1.472v-2.976h-.992c-2.656 0-4.128 1.536-4.672 3.168h-.16v-3.168h-2.976v16.576zm15.204.384c3.104 0 5.504-1.44 6.656-3.584l-1.92-1.632c-.896 1.696-2.4 2.688-4.48 2.688-2.976 0-4.672-1.984-4.672-4.736v-.672h11.68v-1.248c0-4.64-2.624-8.16-7.264-8.16-4.608 0-7.52 3.424-7.52 8.672s2.912 8.672 7.52 8.672zm0-14.944c2.496 0 4.096 1.856 4.096 4.608v.32h-8.512v-.224c0-2.72 1.824-4.704 4.416-4.704zm17.592 14.944c3.168 0 5.344-1.536 6.4-4.032l-2.176-1.344c-.832 1.792-2.208 2.816-4.224 2.816-2.848 0-4.288-1.952-4.288-4.672v-2.88c0-2.72 1.44-4.672 4.288-4.672 1.92 0 3.264.992 3.808 2.624l2.464-1.216c-.96-2.368-3.008-3.968-6.272-3.968-4.736 0-7.456 3.36-7.456 8.672s2.72 8.672 7.456 8.672zm16.065 0c4.512 0 7.552-3.392 7.552-8.672s-3.04-8.672-7.552-8.672-7.552 3.392-7.552 8.672 3.04 8.672 7.552 8.672zm0-2.56c-2.592 0-4.384-1.632-4.384-4.864v-2.496c0-3.232 1.792-4.864 4.384-4.864s4.384 1.632 4.384 4.864v2.496c0 3.232-1.792 4.864-4.384 4.864zm14.577 2.176v-11.36c0-2.016 1.824-3.008 3.712-3.008 2.272 0 3.328 1.44 3.328 4.224v10.144h2.976v-11.36c0-2.016 1.76-3.008 3.68-3.008 2.304 0 3.36 1.44 3.36 4.224v10.144h2.976v-10.592c0-4.032-1.984-6.368-5.312-6.368-2.784 0-4.448 1.568-5.056 3.36h-.064c-.864-2.336-2.816-3.36-5.024-3.36s-3.712 1.408-4.416 3.104h-.16v-2.72h-2.976v16.576zm28.062 0v-11.36c0-2.016 1.824-3.008 3.712-3.008 2.272 0 3.328 1.44 3.328 4.224v10.144h2.976v-11.36c0-2.016 1.76-3.008 3.68-3.008 2.304 0 3.36 1.44 3.36 4.224v10.144h2.976v-10.592c0-4.032-1.984-6.368-5.312-6.368-2.784 0-4.448 1.568-5.056 3.36h-.064c-.864-2.336-2.816-3.36-5.024-3.36s-3.712 1.408-4.416 3.104h-.16v-2.72h-2.976v16.576zm31.423.384c3.104 0 5.504-1.44 6.656-3.584l-1.92-1.632c-.896 1.696-2.4 2.688-4.48 2.688-2.976 0-4.672-1.984-4.672-4.736v-.672h11.68v-1.248c0-4.64-2.624-8.16-7.264-8.16-4.608 0-7.52 3.424-7.52 8.672s2.912 8.672 7.52 8.672zm0-14.944c2.496 0 4.096 1.856 4.096 4.608v.32h-8.512v-.224c0-2.72 1.824-4.704 4.416-4.704zm14.296 14.56v-11.36c0-2.016 1.888-3.008 3.84-3.008 2.336 0 3.488 1.44 3.488 4.224v10.144h2.976v-10.592c0-4.032-2.08-6.368-5.472-6.368-2.496 0-3.904 1.28-4.672 3.104h-.16v-2.72h-2.976v16.576zm25.864 0h2.976v-23.68h-2.976v9.824h-.128c-.768-2.048-2.496-3.104-4.768-3.104-4.16 0-6.656 3.296-6.656 8.672s2.496 8.672 6.656 8.672c2.272 0 4-1.056 4.768-3.104h.128zm-4.032-2.208c-2.656 0-4.352-1.888-4.352-4.672v-2.816c0-2.784 1.696-4.672 4.352-4.672 2.24 0 4.032 1.28 4.032 3.04v6.08c0 1.76-1.792 3.04-4.032 3.04zm26.015 2.208v-2.528h-1.856v-8.736c0-3.584-2.368-5.696-6.496-5.696-3.072 0-5.024 1.44-6.016 3.232l1.792 1.632c.864-1.408 2.112-2.368 4.064-2.368 2.496 0 3.68 1.248 3.68 3.456v1.504h-3.136c-4.736 0-7.072 1.728-7.072 4.928 0 3.04 2.016 4.96 5.472 4.96 2.368 0 4.128-1.088 4.8-3.136h.16c.224 1.6 1.088 2.752 2.912 2.752zm-8.896-2.016c-1.856 0-3.04-.864-3.04-2.4v-.64c0-1.536 1.216-2.368 3.936-2.368h3.168v2.56c0 1.664-1.728 2.848-4.064 2.848zm19.617 2.016v-2.528h-3.296v-11.52h3.552v-2.528h-3.552v-4.576h-2.688v3.04c0 1.12-.352 1.536-1.472 1.536h-1.472v2.528h2.656v10.912c0 1.92 1.088 3.136 3.136 3.136zm5.741-20.032c1.248 0 1.792-.672 1.792-1.632v-.448c0-.96-.544-1.632-1.792-1.632s-1.792.672-1.792 1.632v.448c0 .96.544 1.632 1.792 1.632zm-1.504 20.032h2.976v-16.576h-2.976zm14.587.384c4.512 0 7.552-3.392 7.552-8.672s-3.04-8.672-7.552-8.672-7.552 3.392-7.552 8.672 3.04 8.672 7.552 8.672zm0-2.56c-2.592 0-4.384-1.632-4.384-4.864v-2.496c0-3.232 1.792-4.864 4.384-4.864s4.384 1.632 4.384 4.864v2.496c0 3.232-1.792 4.864-4.384 4.864zm14.577 2.176v-11.36c0-2.016 1.888-3.008 3.84-3.008 2.336 0 3.488 1.44 3.488 4.224v10.144h2.976v-10.592c0-4.032-2.08-6.368-5.472-6.368-2.496 0-3.904 1.28-4.672 3.104h-.16v-2.72h-2.976v16.576zm20.456.384c3.904 0 6.336-2.016 6.336-5.248 0-2.56-1.504-4.16-5.152-4.704l-1.408-.224c-1.92-.288-2.88-.896-2.88-2.368 0-1.408 1.024-2.336 3.04-2.336 1.984 0 3.392.928 4.192 1.984l1.888-1.792c-1.408-1.664-3.168-2.656-5.984-2.656-3.488 0-6.016 1.728-6.016 4.992 0 3.072 2.208 4.384 5.376 4.832l1.408.224c2.016.288 2.656 1.152 2.656 2.368 0 1.536-1.152 2.464-3.264 2.464-2.016 0-3.552-.896-4.8-2.464l-2.016 1.728c1.536 1.952 3.552 3.2 6.624 3.2zm12.236 0c1.472 0 2.112-.832 2.112-1.984v-.48c0-1.152-.64-1.984-2.112-1.984s-2.112.832-2.112 1.984v.48c0 1.152.64 1.984 2.112 1.984zm-167.61 304.953c-4.766.01-8.546-1.302-11.338-3.937-2.792-2.671-4.193-6.481-4.204-11.431l-.019-9.24c-.01-4.95 1.375-8.748 4.157-11.394 2.781-2.682 6.555-4.028 11.321-4.038 4.73-.01 8.381 1.284 10.953 3.882 2.609 2.562 3.918 6.097 3.927 10.607l.001.33-7.15.015-.001-.55c-.005-2.273-.65-4.142-1.937-5.606-1.25-1.464-3.176-2.193-5.779-2.188-2.567.005-4.582.798-6.045 2.377-1.464 1.58-2.193 3.727-2.187 6.44l.02 9.46c.005 2.677.743 4.82 2.213 6.43 1.47 1.574 3.488 2.358 6.055 2.353 2.603-.006 4.527-.743 5.77-2.212 1.28-1.506 1.918-3.377 1.914-5.614l-.003-.99 7.15-.015.002.77c.009 4.51-1.285 8.069-3.883 10.678-2.561 2.572-6.207 3.863-10.937 3.873zm20.984-.814-.08-38.5 6.93-.014.03 14.575.99-.002c.439-.881 1.244-1.726 2.415-2.535 1.208-.846 3.023-1.271 5.443-1.276 2.126-.005 3.979.486 5.558 1.473 1.615.95 2.864 2.286 3.748 4.007.883 1.685 1.328 3.664 1.332 5.938l.034 16.28-6.93.014-.033-15.73c-.004-2.053-.52-3.592-1.549-4.617-.992-1.024-2.423-1.535-4.293-1.531-2.127.005-3.776.723-4.946 2.155-1.17 1.396-1.753 3.359-1.748 5.889l.029 13.86zm42.363.683c-1.943.004-3.685-.323-5.227-.98-1.541-.693-2.772-1.681-3.691-2.962-.883-1.318-1.326-2.912-1.33-4.782-.006-2.824.98-4.952 2.957-6.386s4.505-2.155 7.585-2.161l7.48-.016-.003-1.54c-.002-1.283-.408-2.327-1.216-3.132-.809-.842-2.093-1.261-3.853-1.257-1.723.003-3.006.409-3.847 1.218-.842.772-1.39 1.781-1.644 3.028l-6.385-2.131a11.033 11.033 0 0 1 2.083-3.8c.987-1.175 2.287-2.113 3.899-2.813 1.648-.737 3.646-1.107 5.992-1.112 3.594-.008 6.437.885 8.531 2.677s3.144 4.393 3.151 7.803l.021 10.175c.003 1.1.517 1.649 1.544 1.647l2.2-.004.012 5.72-4.62.009c-1.357.003-2.476-.325-3.357-.983-.882-.658-1.324-1.537-1.326-2.637v-.055l-1.045.002c-.146.44-.475 1.028-.986 1.762-.512.698-1.318 1.323-2.417 1.875-1.098.552-2.601.831-4.508.835zm1.199-5.613c1.943-.004 3.518-.539 4.726-1.605 1.245-1.102 1.865-2.552 1.861-4.349l-.001-.55-6.985.015c-1.283.003-2.291.28-3.023.831-.732.552-1.097 1.322-1.095 2.312s.388 1.796 1.16 2.418c.771.622 1.89.931 3.357.928zm22.126 4.794-.079-38.5 6.93-.014.079 38.5zm14.61-.03-.08-38.5 6.93-.014.08 38.5zm27.041.714c-2.714.005-5.117-.558-7.209-1.69-2.056-1.169-3.672-2.798-4.85-4.885-1.141-2.124-1.715-4.617-1.72-7.477l-.002-.66c-.006-2.86.557-5.336 1.69-7.428 1.132-2.129 2.724-3.764 4.775-4.905 2.05-1.178 4.433-1.769 7.146-1.775 2.677-.005 5.006.595 6.989 1.801 1.982 1.169 3.526 2.816 4.63 4.94 1.104 2.088 1.659 4.525 1.665 7.312l.005 2.365-19.855.041c.077 1.87.777 3.39 2.099 4.56 1.323 1.171 2.937 1.754 4.844 1.75 1.943-.004 3.373-.428 4.287-1.274.915-.845 1.61-1.781 2.085-2.809l5.671 2.958c-.512.955-1.261 2.001-2.249 3.14-.951 1.102-2.232 2.058-3.844 2.868-1.611.773-3.664 1.163-6.157 1.168zm-6.692-17.531 12.76-.027c-.15-1.576-.794-2.84-1.933-3.791-1.102-.951-2.551-1.425-4.348-1.421-1.87.004-3.354.484-4.452 1.439-1.098.956-1.773 2.222-2.027 3.8zm26.003 16.721-.056-27.28 6.82-.014.007 3.575.99-.002c.438-.955 1.261-1.855 2.469-2.7 1.209-.883 3.041-1.327 5.498-1.332 2.126-.004 3.979.487 5.558 1.474 1.615.95 2.865 2.285 3.748 4.007.884 1.685 1.328 3.664 1.332 5.937l.034 16.28-6.93.014-.032-15.73c-.005-2.053-.521-3.592-1.55-4.616-.992-1.025-2.423-1.535-4.293-1.531-2.127.004-3.775.722-4.946 2.155-1.17 1.396-1.753 3.358-1.748 5.888l.029 13.86zm32.544-13.598-.002-.88c-.006-2.86.557-5.299 1.69-7.318 1.132-2.056 2.632-3.617 4.5-4.685 1.904-1.104 3.975-1.658 6.212-1.662 2.493-.006 4.382.43 5.667 1.308 1.285.877 2.222 1.792 2.811 2.744l.99-.002-.007-3.3 6.82-.014.067 32.12c.004 1.87-.543 3.356-1.641 4.458-1.098 1.139-2.563 1.71-4.397 1.714l-18.259.038-.013-6.05 15.84-.033c1.027-.002 1.539-.553 1.537-1.653l-.015-7.095-.99.002c-.548.918-1.463 1.8-2.745 2.646-1.245.846-3.114 1.271-5.607 1.276-2.237.005-4.31-.522-6.218-1.582-1.873-1.096-3.379-2.651-4.52-4.665-1.141-2.051-1.714-4.507-1.72-7.367zm14.425 7.56c2.127-.004 3.904-.686 5.331-2.046 1.427-1.359 2.138-3.267 2.133-5.724l-.001-.55c-.005-2.493-.724-4.399-2.157-5.716-1.396-1.353-3.176-2.028-5.339-2.024-2.127.005-3.904.687-5.331 2.046-1.427 1.323-2.138 3.232-2.133 5.725l.001.55c.005 2.457.724 4.362 2.157 5.715 1.433 1.354 3.213 2.029 5.339 2.024zm34.427 6.639c-2.713.006-5.116-.558-7.208-1.69-2.056-1.169-3.673-2.797-4.85-4.885-1.141-2.124-1.715-4.616-1.721-7.476l-.001-.66c-.006-2.86.557-5.337 1.69-7.429 1.132-2.129 2.723-3.764 4.774-4.905 2.051-1.177 4.433-1.769 7.147-1.775 2.676-.005 5.006.595 6.988 1.801 1.983 1.169 3.526 2.816 4.631 4.94 1.104 2.088 1.659 4.525 1.665 7.312l.005 2.365-19.855.041c.077 1.87.777 3.39 2.099 4.561 1.323 1.17 2.937 1.754 4.844 1.75 1.943-.004 3.372-.429 4.287-1.274.915-.846 1.61-1.782 2.084-2.81l5.672 2.959c-.512.954-1.261 2.001-2.249 3.139-.951 1.102-2.232 2.058-3.844 2.868-1.612.774-3.664 1.163-6.158 1.168zm-6.691-17.531 12.76-.027c-.15-1.576-.794-2.84-1.933-3.791-1.102-.951-2.551-1.424-4.348-1.421-1.87.004-3.354.484-4.452 1.44-1.098.955-1.774 2.222-2.027 3.799zm37.335 17.468c-3.557.007-6.474-.757-8.75-2.292-2.277-1.536-3.656-3.733-4.139-6.592l6.377-1.663c.37 1.906 1.143 3.224 2.318 3.955 1.211.731 2.605 1.095 4.182 1.092 1.613-.004 2.805-.281 3.573-.833.769-.588 1.153-1.304 1.151-2.147-.002-.844-.37-1.485-1.104-1.923-.734-.475-1.908-.858-3.522-1.148l-1.541-.271c-1.907-.363-3.65-.855-5.228-1.475-1.578-.656-2.845-1.552-3.801-2.687-.955-1.134-1.435-2.6-1.439-4.397-.005-2.713.98-4.787 2.957-6.221 1.977-1.471 4.579-2.209 7.806-2.216 3.043-.006 5.575.667 7.594 2.019 2.019 1.353 3.343 3.128 3.971 5.327l-6.431 1.993c-.296-1.392-.903-2.381-1.821-2.966-.881-.585-1.982-.876-3.302-.873s-2.328.243-3.023.721c-.696.442-1.043 1.066-1.041 1.872.001.88.369 1.54 1.104 1.978.734.402 1.724.711 2.972.929l1.54.272c2.054.362 3.907.853 5.558 1.473 1.688.583 3.01 1.442 3.966 2.577.992 1.098 1.49 2.6 1.494 4.507.006 2.86-1.035 5.08-3.121 6.661-2.05 1.545-4.817 2.32-8.3 2.328z" fill="#323537"/><path d="m515.483 805v-3.872h6.016v-14.976h-.288l-4.544 5.952-3.072-2.4 5.344-7.04h7.36v18.464h4.736v3.872zm40.263 4.416 10.272-28.736h4.256l-10.272 28.736zm41.607-4.416v-3.872h6.016v-14.976h-.288l-4.544 5.952-3.072-2.4 5.344-7.04h7.36v18.464h4.736v3.872zm27.06.384c-1.344 0-2.539-.16-3.584-.48-1.046-.341-1.931-.8-2.656-1.376a5.88 5.88 0 0 1 -1.664-2.048 6.346 6.346 0 0 1 -.544-2.624c0-1.451.416-2.613 1.248-3.488.832-.896 1.898-1.525 3.2-1.888v-.256c-1.11-.405-2.017-1.024-2.721-1.856s-1.056-1.899-1.056-3.2c0-.853.171-1.643.512-2.368a5.051 5.051 0 0 1 1.504-1.856c.662-.533 1.473-.939 2.433-1.216.96-.299 2.069-.448 3.327-.448 1.238 0 2.337.149 3.297.448.981.277 1.802.683 2.464 1.216a5.039 5.039 0 0 1 1.503 1.856c.342.725.513 1.515.513 2.368 0 1.301-.352 2.368-1.056 3.2s-1.611 1.451-2.72 1.856v.256c1.301.363 2.368.992 3.2 1.888.832.875 1.248 2.037 1.248 3.488 0 .939-.192 1.813-.576 2.624a5.573 5.573 0 0 1 -1.632 2.048c-.726.576-1.611 1.035-2.656 1.376-1.046.32-2.24.48-3.584.48zm0-3.68c1.109 0 1.952-.256 2.528-.768.597-.512.896-1.205.896-2.08v-.64c0-.896-.288-1.589-.864-2.08-.576-.512-1.43-.768-2.56-.768-1.131 0-1.984.256-2.56.768-.576.491-.864 1.184-.864 2.08v.64c0 .875.288 1.568.864 2.08.597.512 1.45.768 2.56.768zm0-9.856c1.066 0 1.877-.245 2.431-.736.555-.491.833-1.152.832-1.984v-.48c0-.832-.287-1.483-.863-1.952-.555-.491-1.355-.736-2.401-.736-1.045 0-1.855.245-2.431.736-.555.469-.833 1.12-.833 1.952l.001.48c0 .832.277 1.493.832 1.984.554.491 1.365.736 2.432.736z" fill="#f7f7f5"/><circle cx="285" cy="868" fill="#323537" r="30"/><g fill="#f7f7f5"><path d="m277.272 868.194c-1.915 0-3.283-.52-4.366-1.559-1.069-1.038-1.603-2.448-1.603-4.229v-10.105h2.938v10.194c0 .95.268 1.699.802 2.248.549.549 1.205.824 2.229.824s1.803-.275 2.337-.824c.549-.549.823-1.298.823-2.248v-10.194h2.939v10.105c0 1.781-.542 3.191-1.625 4.229-1.069 1.039-2.56 1.559-4.474 1.559z"/><path clip-rule="evenodd" d="m272.725 866.824-.001-.001c-1.129-1.098-1.682-2.58-1.682-4.416v-10.367h3.46v10.456c0 .898.251 1.575.727 2.064.486.486 1.066.746 2.043.746.978 0 1.68-.261 2.15-.744l.001-.002.001-.001c.49-.489.747-1.167.747-2.063v-10.456h3.461v10.367c0 1.837-.561 3.319-1.705 4.416-1.13 1.099-2.694 1.632-4.655 1.632-1.963 0-3.403-.534-4.547-1.631zm9.021-.188c1.083-1.039 1.625-2.449 1.625-4.229v-10.106h-2.939v10.195c0 .949-.274 1.699-.823 2.248-.534.549-1.313.823-2.337.823s-1.68-.274-2.229-.823c-.534-.549-.802-1.299-.802-2.248v-10.195h-2.938v10.106c0 1.78.534 3.19 1.603 4.229 1.083 1.038 2.451 1.558 4.366 1.558 1.914 0 3.405-.52 4.474-1.558z" fill-rule="evenodd"/><path d="m284.677 868.143 4.716-8.12-4.67-7.983h3.972l3.198 5.82h.675l3.198-5.82h3.972l-4.669 7.983 4.715 8.12h-3.972l-3.244-5.958h-.675l-3.244 5.958zm-8.354 3.705c.019-.116.019-.174.019-.213 0-.058-.077-.096-.174-.135a2.265 2.265 0 0 0 -.734-.155c-.194 0-.232.097-.542.097-.077 0-.096 0-.212.251-.658 1.411-1.18 2.919-1.644 4.099a10.39 10.39 0 0 0 -.309.908c-.039.174-.155.271-.329.271-.347 0-1.474-.31-1.899-.31a.763.763 0 0 0 -.387.097c-.155.077-.232.116-.232.251 0 .058 0 .155.097.232.444.368 1.204.87 1.9 1.218.077.039.096.078.096.116 0 .039-.019.078-.038.136-.619 1.488-.967 3.17-1.45 4.601a2.083 2.083 0 0 0 -.078.579c0 .174.058.348.213.464s.464.213.696.213a.77.77 0 0 0 .29-.058c.271-.135.464-.638.483-.812.116-.966.773-2.61.889-3.248.039-.212.155-.406.213-.618.077-.29.174-.657.329-.928a.626.626 0 0 1 .367-.29c.406-.135 2.049-.503 2.996-.87.348-.135.348-.193.87-.406.426-.174.638-.483.638-.735 0-.231-.361-.502-.69-.502-.038 0-.287.055-.47.097-1.052.241-1.739.792-2.59.966a4.412 4.412 0 0 1 -.483.077c-.039 0-.078-.019-.078-.058 0-.058.252-.792.445-1.198.619-1.315 1.546-2.629 1.798-4.137z"/><path d="m280.978 875.27c-.057-.155-.115-.194-.27-.329a1.523 1.523 0 0 0 -1.025-.367c-.85 0-1.662.908-2.281 1.778-.193.271-.193.174-.464.58-.889 1.334-1.682 2.726-1.682 4.311 0 .483.078 1.063.29 1.605.174.444.716.869 1.45 1.217.116.058.29.097.464.097.677 0 1.199-.561 1.74-1.14 1.237-1.315 1.933-3.113 2.436-5.181.038-.136.077-.155.232-.155.135 0 .367 0 .754-.058.502-.077 1.063-.271 1.45-.329.135-.019.174-.038.212-.116.058-.096.541-.154.541-.406 0-.309-.579-.502-1.198-.502-.445 0-.889.058-1.663.058-.56 0-.812-.58-.986-1.063zm-.985 1.087c.064.129.096.266.116.401.019.097.019.329.019.406 0 1.953-1.044 3.46-2.165 5.142-.155.232-.194.29-.329.348-.077.039-.174.155-.367.155-.058 0-.116 0-.174-.039-.174-.116-.406-.483-.464-.638-.058-.135-.058-.212-.058-.27 0-2.262 1.817-4.659 2.416-5.413.097-.135.29-.232.368-.329.096-.116.212-.193.29-.193.077 0 .283.301.348.43z"/><path d="m288.284 875.27c-.058-.155-.116-.194-.27-.329a1.523 1.523 0 0 0 -1.025-.367c-.85 0-1.662.908-2.281 1.778-.193.271-.193.174-.464.58-.889 1.334-1.682 2.726-1.682 4.311 0 .483.078 1.063.29 1.605.174.444.716.869 1.45 1.217.116.058.29.097.464.097.677 0 1.199-.561 1.74-1.14 1.237-1.315 1.933-3.113 2.436-5.181a10.131 10.131 0 0 0 -.117-1.254c-.181-.542-.367-.834-.541-1.317zm-1.022.958c.117.181.133.395.153.53.019.097.019.329.019.406 0 1.953-1.044 3.46-2.165 5.142-.155.232-.194.29-.329.348-.077.039-.174.155-.367.155-.058 0-.116 0-.174-.039-.174-.116-.406-.483-.464-.638-.058-.135-.058-.212-.058-.27 0-2.262 1.817-4.659 2.416-5.413.097-.135.29-.232.368-.329.096-.116.212-.193.29-.193.077 0 .219.159.311.301zm3.974 8.282c1.489 0 2.281-1.469 3.267-2.532.194-.213.387-.29.387-.542 0-.309-.503-.444-.657-.444-.89 0-1.837 1.643-2.687 2.165a.637.637 0 0 1 -.329.077c-.174 0-.329-.058-.387-.232a2.363 2.363 0 0 1 -.096-.715c0-.851.425-1.585.734-2.378 1.141-3.016 3.171-5.606 4.93-8.448.116-.193.193-.425.193-.676a.933.933 0 0 0 -.154-.542c-.097-.135-.31-.212-.503-.212-.213 0-.367.038-.638.038-.754 0-.87 1.083-1.199 1.644-1.469 2.513-3.189 5.606-4.021 7.771-.425 1.102-.831 1.991-.831 2.88 0 .232.02.445.058.658.193 1.063 1.798 1.488 1.933 1.488z"/><path d="m300.365 875.192c-.406-.425-.832-.696-1.895-.696-.367 0-1.16.348-1.72 1.238-.464.734-.696 1.836-.696 2.358 0 .387.348 3.286.618 4.562.097.484.097.522.097.6 0 .077-.077.154-.193.154-.097 0-.194-.038-.387-.212-.58-.522-.812-1.257-1.257-1.856-.174-.232-.348-.271-.734-.271-.406 0-.696.425-.696.715 0 .058.058.194.116.29.638 1.064 1.546 2.069 2.822 2.591.097.038.31.077.484.077.521 0 .869-.348 1.217-.696a.486.486 0 0 0 .155-.348c0-.792-.445-2.958-.619-4.407a22.29 22.29 0 0 1 -.135-1.238c0-.232.019-.367.039-.502.154-.89 1.044-1.991 1.179-1.991.155 0 .348.135.425.27.078.136.136.368.136.522 0 .329-.155.599-.329.889a.305.305 0 0 0 -.058.155c0 .29.116.483.29.619.135.116.464.251.677.251.096 0 .116-.019.27-.213.271-.348.561-.87.561-1.604 0-.387-.097-.967-.367-1.257z"/></g></g><rect height="960" rx="20" stroke="#323537" stroke-linecap="round" stroke-linejoin="round" stroke-width="12" width="700" x="6" y="6"/></svg>