<svg height="32" width="32" xmlns="http://www.w3.org/2000/svg"><mask id="a" fill="#fff"><circle cx="16" cy="16" fill-rule="evenodd" r="16"/></mask><mask id="b" fill="#fff"><circle cx="15.686" cy="15.686" fill-rule="evenodd" r="15.686"/></mask><mask id="c" fill="#fff"><circle cx="14.431" cy="14.431" fill-rule="evenodd" r="14.431"/></mask><mask id="d" fill="#fff"><path d="M13.804 3.304l4.078-2.98c.356-.291.628-.224.628.313v9.089c0 .602-.339.533-.628.313l-4.078-2.98zM0 .659v6.776a2.775 2.775 0 0 0 2.787 2.761h9.883a.505.505 0 0 0 .506-.502V2.918A2.775 2.775 0 0 0 10.39.157H.507A.505.505 0 0 0 0 .659z" fill-rule="evenodd"/></mask><g fill="none"><path d="M-.784-.784h33.568v33.568H-.784z" fill="#e5e5e4" mask="url(#a)"/><path d="M-.784-.784h32.94v32.94H-.783z" fill="#fff" mask="url(#b)" transform="translate(.314 .314)"/><path d="M-.784-.784h30.431v30.431H-.784z" fill="#4a8cff" mask="url(#c)" transform="translate(1.569 1.569)"/><path d="M-.784-.627h20.078V10.98H-.784z" fill="#fff" mask="url(#d)" transform="translate(6.588 10.824)"/></g></svg>